# Made in Blockbench 5.1.6
mtllib tmspmg.mtl

o cuboid
v -0.24294713480776936 1.3732681931310728 -0.20114633126384007
v -0.2066813020756595 1.2121665165358937 -0.23589689492069205
v -0.0786525560998588 1.4114121856213422 -0.20652124931832638
v -0.04238672336774896 1.2503105090261633 -0.24127181297517836
v -0.024396125710341013 1.4219309748531046 -0.1939208686719798
v -0.03926518501953187 1.259432903214616 -0.2369307546173333
v 0.14369736616475204 1.4076152253529002 -0.19794576686763454
v 0.1288283068555614 1.245117153714411 -0.24095565281298814
v -0.3863840261429029 1.1088922826574465 0.11958571710537305
v -0.29290627968845395 1.1031009792557525 0.12376114794629103
v -0.3939429604953599 0.9841774884614947 0.11583303538204318
v -0.300465214040911 0.9783861850598008 0.1200084662229611
v -0.3733647241484792 1.116553812810357 -0.16125829873134373
v -0.27988697769403026 1.1107625094086637 -0.1570828678904257
v -0.3809236585009361 0.9918390186144054 -0.16501098045467363
v -0.2874459120464873 0.9860477152127116 -0.16083554961375557
v -0.3940867981878641 0.9874401808313316 0.11591533852796801
v -0.30147307041906346 1.0012226721582147 0.12058469197259816
v -0.37556707281592205 0.8638452630436153 0.11340215942660306
v -0.28295334504712144 0.8776277543704987 0.11807151287123327
v -0.3810675065252228 0.9951017015174226 -0.16492867804596517
v -0.2884537787564222 1.008884192844306 -0.160259324601335
v -0.36254778115328073 0.8715067837297066 -0.16744185714733006
v -0.2699340533844802 0.8852892750565899 -0.1627725037026999
v 0.37922233508352376 1.097356113386225 0.03116584514737672
v 0.25544303727945206 1.0808632092720012 0.036793415583181194
v 0.3950866978281087 0.9740055599183801 0.01859751375913979
v 0.27130740002403675 0.9575126558041562 0.024225084194944263
v 0.36840490853475083 1.1149531703667117 -0.15519288651950125
v 0.244625610730679 1.0984602662524878 -0.14956531608369678
v 0.3842692712793355 0.9916026168988668 -0.16776121790773818
v 0.2604899734752638 0.9751097127846428 -0.1621336474719337
v 0.3950865080830862 0.9740059398940702 0.018597524801321957
v 0.2707136973581492 0.9835194584888853 0.026715216365128663
v 0.3848690430041366 0.8499218233386988 0.007473882141048438
v 0.26049623227919966 0.859435341933514 0.015591573704855172
v 0.384269088824606 0.9916029910928652 -0.16776120783467036
v 0.259896278099669 1.0011165096876802 -0.1596435162708636
v 0.37405162374565637 0.8675188745374937 -0.1788848504949439
v 0.24967881302071931 0.8770323931323092 -0.17076715893113717
v 0.25 1.2500000000000002 -0.16249999999999998
v 0.25 1.25 -0.225
v 0.25 0.8312500000000002 -0.16250000000000003
v 0.25 0.8312500000000002 -0.22500000000000003
v -0.24999999999999994 1.25 -0.16250000000000003
v -0.24999999999999994 1.25 -0.22500000000000003
v -0.25 0.83125 -0.1625
v -0.25 0.8312500000000002 -0.22499999999999998
v 0.25000000000000006 1.25 0.2125
v 0.25 1.2500000000000002 0.15000000000000005
v 0.25000000000000006 0.8625000000000002 0.2125000000000001
v 0.25 0.8625000000000003 0.1500000000000001
v -0.24999999999999994 1.25 0.2125
v -0.24999999999999994 1.25 0.15
v -0.25 0.8625 0.2125000000000001
v -0.25 0.8625 0.15000000000000005
v 0.2031249999999999 1.4375000000000002 0.15000000000000005
v 0.20312499999999994 1.4375000000000002 0.10625000000000004
v 0.203125 0.8999999999999999 0.15
v 0.20312499999999994 0.9 0.10625000000000004
v -0.20312500000000003 1.4375000000000004 0.15000000000000005
v -0.20312500000000003 1.4375000000000004 0.10625000000000004
v -0.20312499999999997 0.8999999999999999 0.15
v -0.20312499999999997 0.8999999999999999 0.10625000000000004
v 0.20312500000000006 1.403450889832985 -0.11151408593142081
v 0.203125 1.40519586466811 -0.16148362728237572
v 0.203125 0.8975092836545675 -0.12918195613706196
v 0.203125 0.8992542584896925 -0.1791514974880168
v -0.20312500000000006 1.4034508898329852 -0.1115140859314208
v -0.20312500000000006 1.4051958646681102 -0.1614836272823757
v -0.203125 0.8975092836545674 -0.12918195613706196
v -0.203125 0.8992542584896925 -0.1791514974880168
v 0.2499999999999999 1.4373828369752375 -0.12048961372297427
v 0.24999999999999983 1.4503773176513475 -0.18162383876883711
v 0.24999999999999994 1.2356398943238902 -0.1633713999541371
v 0.24999999999999994 1.2486343750000002 -0.22450562499999996
v -0.25000000000000006 1.4373828369752375 -0.12048961372297425
v -0.25 1.4503773176513475 -0.1816238387688371
v -0.24999999999999994 1.23563989432389 -0.16337139995413713
v -0.24999999999999997 1.248634375 -0.224505625
v 0.24999999999999994 1.4587417399750968 0.19532985543151318
v 0.25000000000000006 1.454381960366089 0.1329821022902742
v 0.25 1.2405246039807603 0.21058908406304064
v 0.2499999999999999 1.2361648243717522 0.14824133092180156
v -0.25 1.4587417399750968 0.19532985543151318
v -0.24999999999999997 1.454381960366089 0.1329821022902742
v -0.24999999999999997 1.2405246039807603 0.21058908406304053
v -0.24999999999999997 1.2361648243717522 0.1482413309218015
v -0.21031636856028352 1.5864312942808512 0.16108384032054326
v -0.20596536234547522 1.5829432594262238 0.11139578986802892
v -0.11060844372331978 1.239487648984303 0.19416989044819186
v -0.10625743750851152 1.2359996141296758 0.14448183999567757
v -0.34795438542152135 1.5459968976534377 0.1518698084190012
v -0.3436033792067132 1.5425088627988108 0.10218175796648701
v -0.24824646058455763 1.1990532523568895 0.18495585854664978
v -0.24389545436974935 1.1955652175022626 0.13526780809413555
v -0.21600336458145308 1.6073169544796153 0.056874688021159664
v -0.19797334129479724 1.5488380880304147 0.044170734341332646
v -0.21628327812123455 1.5860057790293187 0.15457707002557577
v -0.1982532548345787 1.527526912580118 0.14187311634574876
v -0.3416728400120074 1.570398529984405 0.04846187768211338
v -0.32364281672535145 1.5119196635352044 0.035757924002286307
v -0.3419527535517889 1.5490873545341084 0.1461642596865295
v -0.3239227302651331 1.4906084880849078 0.13346030600670247
v -0.1888381235539545 1.5517966966037051 0.07960461402488042
v -0.20636173304336616 1.616759146861978 0.06548492327387609
v -0.1781291227570564 1.537459298410222 0.0003498424652228216
v -0.19565273224646806 1.602421748668495 -0.0137698482857814
v -0.33851711051454336 1.5087187260725599 0.0671727269046706
v -0.35604072000395515 1.5736811763308332 0.05305303615366633
v -0.3278081097176453 1.4943813278790767 -0.01208204465498705
v -0.34533171920705713 1.55934377813735 -0.026201735405991217
v -0.17236273771257274 1.529739160921423 -0.042325803759208525
v -0.18988634720198444 1.594701611179696 -0.05644549451021272
v -0.1616537369156747 1.5154017627279397 -0.121580575318866
v -0.17917734640508645 1.580364212986213 -0.1357002660698703
v -0.3220417246731617 1.4866611903902782 -0.054757690879418314
v -0.3395653341625735 1.5516236406485513 -0.06887738163042256
v -0.31133272387626354 1.4723237921967947 -0.13401246243907589
v -0.3288563333656754 1.537286242455068 -0.14813215319008005
v -0.19998867321873248 1.5472475821770992 0.07251354216605935
v -0.21591922730001586 1.6063043551391658 0.0596774596651464
v -0.17527559445666 1.5141612786536764 -0.110382084510074
v -0.19120614853794335 1.5732180516157428 -0.12321816701098698
v -0.3257190222656272 1.511062086930938 0.0620707569850831
v -0.3416495763469106 1.5701188598930038 0.0492346744841701
v -0.3010059435035547 1.4779757834075147 -0.12082486969105022
v -0.316936497584838 1.5370325563695808 -0.13366095219196325
v -0.1860340519241504 1.5671871547507439 -0.08604003054052195
v -0.18508323868632467 1.5762334965330544 -0.12883398051647538
v -0.06085399067443288 1.156487902475177 -0.17007767951886543
v -0.05990317743660717 1.1655342442574872 -0.2128716294948188
v -0.3237387248065947 1.5275554685761787 -0.09747746982122621
v -0.32278791156876907 1.5366018103584895 -0.14027141979717966
v -0.19855866355687724 1.116856216300612 -0.18151511879956964
v -0.19760785031905148 1.1259025580829223 -0.22430906877552304
v 0.34795438542152135 1.5459968976534377 0.1518698084190012
v 0.343603379206713 1.5425088627988106 0.10218175796648696
v 0.24824646058455763 1.1990532523568898 0.18495585854664984
v 0.2438954543697494 1.1955652175022626 0.1352678080941355
v 0.21031636856028352 1.5864312942808514 0.16108384032054326
v 0.20596536234547524 1.582943259426224 0.11139578986802892
v 0.11060844372331974 1.239487648984303 0.19416989044819186
v 0.10625743750851149 1.2359996141296758 0.14448183999567757
v 0.34167284001200743 1.570398529984405 0.04846187768211338
v 0.3236428167253515 1.5119196635352041 0.035757924002286307
v 0.34195275355178884 1.5490873545341084 0.14616425968652955
v 0.32392273026513296 1.490608488084908 0.13346030600670253
v 0.21600336458145303 1.6073169544796153 0.05687468802115961
v 0.1979733412947972 1.5488380880304147 0.044170734341332646
v 0.21628327812123455 1.5860057790293187 0.15457707002557577
v 0.19825325483457856 1.527526912580118 0.14187311634574876
v 0.33851711051454336 1.5087187260725599 0.0671727269046706
v 0.3560407200039549 1.5736811763308332 0.05305303615366638
v 0.3278081097176453 1.494381327879077 -0.012082044654987023
v 0.3453317192070571 1.5593437781373503 -0.02620173540599119
v 0.18883812355395435 1.5517966966037053 0.07960461402488048
v 0.20636173304336625 1.616759146861978 0.06548492327387614
v 0.1781291227570564 1.537459298410222 0.0003498424652228216
v 0.19565273224646806 1.6024217486684948 -0.013769848285781427
v 0.3257190222656273 1.5110620869309377 0.06207075698508305
v 0.3416495763469105 1.5701188598930043 0.0492346744841701
v 0.30100594350355464 1.4779757834075147 -0.12082486969105022
v 0.31693649758483816 1.537032556369581 -0.13366095219196322
v 0.19998867321873254 1.5472475821770995 0.07251354216605935
v 0.21591922730001584 1.606304355139166 0.059677459665146454
v 0.17527559445665997 1.5141612786536764 -0.11038208451007392
v 0.19120614853794338 1.573218051615743 -0.12321816701098699
v 0.32204172467316183 1.486661190390278 -0.054757690879418314
v 0.33956533416257334 1.5516236406485513 -0.06887738163042251
v 0.3113327238762636 1.4723237921967949 -0.13401246243907586
v 0.3288563333656752 1.537286242455068 -0.14813215319008005
v 0.17236273771257293 1.5297391609214233 -0.0423258037592085
v 0.18988634720198455 1.594701611179696 -0.05644549451021272
v 0.1616537369156747 1.5154017627279397 -0.12158057531886603
v 0.17917734640508648 1.580364212986213 -0.13570026606987032
v 0.3237387248065947 1.527555468576179 -0.09747746982122618
v 0.32278791156876896 1.5366018103584895 -0.1402714197971796
v 0.1985586635568773 1.116856216300612 -0.18151511879956964
v 0.19760785031905154 1.1259025580829225 -0.22430906877552304
v 0.18603405192415046 1.567187154750744 -0.086040030540522
v 0.18508323868632476 1.5762334965330542 -0.12883398051647543
v 0.06085399067443287 1.1564879024751773 -0.17007767951886532
v 0.05990317743660717 1.1655342442574872 -0.2128716294948188
v -0.27723616960864317 1.125 0.10193584315367046
v -0.25027236169608646 1.1250000000000002 -0.20626189156846322
v -0.27723616960864317 0.8750000000000001 0.10193584315367052
v -0.2502723616960864 0.8750000000000002 -0.20626189156846322
v -0.31459347078708366 1.1250000000000002 0.09866750280063327
v -0.28762966287452685 1.125 -0.20953023192150047
v -0.31459347078708366 0.8750000000000001 0.09866750280063333
v -0.28762966287452696 0.8750000000000002 -0.20953023192150041
v 0.31459347078708366 1.125 0.09866750280063322
v 0.28762966287452685 1.1250000000000002 -0.2095302319215005
v 0.31459347078708366 0.8750000000000001 0.09866750280063333
v 0.28762966287452685 0.8750000000000002 -0.20953023192150044
v 0.27723616960864317 1.1250000000000002 0.10193584315367052
v 0.25027236169608635 1.1250000000000002 -0.20626189156846333
v 0.2772361696086431 0.8750000000000002 0.10193584315367052
v 0.25027236169608635 0.8750000000000002 -0.20626189156846325
v -0.21655260636174328 1.125 0.19011494854229968
v -0.27964437500000006 1.125 0.07860062500000001
v -0.21655260636174328 0.8750000000000002 0.19011494854229968
v -0.279644375 0.8750000000000001 0.07860062500000001
v -0.24919094495948949 1.1250000000000002 0.20858083204617958
v -0.3122827135977462 1.1250000000000002 0.09706650850388002
v -0.2491909449594895 0.8750000000000002 0.2085808320461797
v -0.31228271359774623 0.8750000000000002 0.09706650850388002
v 0.2491909449594895 1.125 0.20858083204617958
v 0.31228271359774634 1.125 0.09706650850387996
v 0.2491909449594895 0.8750000000000002 0.2085808320461797
v 0.3122827135977462 0.8750000000000001 0.09706650850388002
v 0.21655260636174328 1.125 0.19011494854229963
v 0.27964437499999995 1.125 0.07860062500000006
v 0.21655260636174328 0.8750000000000002 0.19011494854229968
v 0.27964437500000006 0.8750000000000002 0.07860062500000006
v -0.22187500000000002 1.0937500000000002 0.15000000000000005
v -0.22187500000000002 1.0937500000000002 -0.16249999999999995
v -0.221875 0.9062500000000002 0.15
v -0.22187500000000004 0.9062500000000002 -0.16249999999999998
v -0.278125 1.0937500000000002 0.15000000000000005
v -0.278125 1.0937500000000002 -0.16249999999999998
v -0.27812500000000007 0.9062500000000002 0.1500000000000001
v -0.27812500000000007 0.9062500000000002 -0.16249999999999998
v 0.278125 1.0937500000000002 0.15000000000000005
v 0.27812500000000007 1.0937500000000002 -0.16249999999999998
v 0.27812499999999996 0.9062500000000002 0.15000000000000005
v 0.27812500000000007 0.9062500000000002 -0.16250000000000003
v 0.22187499999999993 1.0937500000000002 0.1500000000000001
v 0.22187499999999988 1.0937500000000002 -0.1625
v 0.22187499999999993 0.9062500000000002 0.15000000000000005
v 0.22187499999999993 0.9062500000000002 -0.1625
v 0.1406250000000001 1.25 -0.2250000000000001
v 0.1406250000000001 1.25 -0.23125000000000004
v 0.14062500000000006 1.1875 -0.2250000000000001
v 0.140625 1.1875 -0.23125000000000007
v -0.140625 1.25 -0.2250000000000001
v -0.14062499999999997 1.2500000000000002 -0.23125000000000007
v -0.140625 1.1875 -0.22500000000000003
v -0.140625 1.1875000000000002 -0.23125
v 0.15624999999999994 1.32057751379357 -0.20640524335769556
v 0.15625 1.3218769618611808 -0.2125186658622818
v 0.15625 1.259443288747707 -0.21939972403380548
v 0.15625 1.2607427368153177 -0.22551314653839177
v -0.15625000000000006 1.3205775137935698 -0.20640524335769556
v -0.15625 1.3218769618611808 -0.2125186658622818
v -0.15624999999999997 1.259443288747707 -0.21939972403380548
v -0.15624999999999997 1.2607427368153177 -0.22551314653839177
v 0.15624999999999994 1.3878251613440191 -0.1921113146139745
v 0.15624999999999994 1.3891246094116299 -0.1982247371185608
v 0.15624999999999994 1.3266909362981565 -0.20510579529008446
v 0.15624999999999994 1.3279903843657672 -0.21121921779467076
v -0.15624999999999997 1.3878251613440191 -0.19211131461397454
v -0.15624999999999997 1.3891246094116299 -0.19822473711856084
v -0.15625 1.3266909362981565 -0.20510579529008452
v -0.15625 1.3279903843657672 -0.2112192177946708
v 0.1406250000000001 1.18125 -0.22500000000000003
v 0.1406250000000001 1.18125 -0.23125
v 0.14062499999999994 1.11875 -0.22500000000000003
v 0.140625 1.11875 -0.23125
v -0.140625 1.18125 -0.22499999999999998
v -0.140625 1.1812500000000001 -0.23124999999999996
v -0.14062500000000003 1.1187500000000001 -0.225
v -0.14062500000000003 1.1187500000000001 -0.23124999999999998
v 0.21875000000000006 1.1031250000000001 -0.22500000000000003
v 0.21875 1.103125 -0.23125
v 0.21875 0.8531250000000001 -0.22500000000000003
v 0.21874999999999994 0.8531250000000001 -0.23125
v -0.21874999999999994 1.103125 -0.22500000000000006
v -0.21874999999999997 1.103125 -0.23125000000000004
v -0.21875 0.8531250000000001 -0.225
v -0.21875 0.853125 -0.23125
v -0.14687499999999995 1.140625 -0.22500000000000003
v -0.146875 1.140625 -0.24375
v -0.14687499999999998 1.0656249999999998 -0.22499999999999998
v -0.146875 1.065625 -0.24375000000000002
v -0.19687499999999997 1.140625 -0.22499999999999998
v -0.19687500000000002 1.1406250000000002 -0.24374999999999994
v -0.196875 1.065625 -0.225
v -0.19687500000000002 1.065625 -0.24374999999999997
v 0.19687500000000002 1.140625 -0.22500000000000003
v 0.19687500000000002 1.1406250000000002 -0.24375
v 0.19687499999999997 1.065625 -0.22499999999999995
v 0.1968749999999999 1.065625 -0.24374999999999997
v 0.14687499999999998 1.1406250000000002 -0.22499999999999998
v 0.14687499999999998 1.1406250000000002 -0.24374999999999994
v 0.14687499999999998 1.065625 -0.22499999999999998
v 0.14687500000000003 1.065625 -0.2437499999999999
v 0.15625000000000006 1.25 0.21875000000000003
v 0.15625 1.25 0.2125000000000001
v 0.15625 1.1875 0.21874999999999997
v 0.15625 1.1875 0.21250000000000005
v -0.15624999999999994 1.25 0.21874999999999997
v -0.15624999999999994 1.25 0.2125
v -0.15624999999999994 1.1875 0.21875000000000003
v -0.15624999999999994 1.1875 0.21250000000000005
v 0.15625 1.387165056910726 0.20290848486018273
v 0.15625000000000006 1.3867290789498252 0.19667370954605892
v 0.15624999999999994 1.324817303769487 0.20726826446919064
v 0.15625000000000006 1.324381325808586 0.20103348915506672
v -0.15625 1.387165056910726 0.20290848486018268
v -0.15624999999999997 1.3867290789498252 0.1966737095460588
v -0.15625 1.324817303769487 0.20726826446919058
v -0.15624999999999994 1.324381325808586 0.20103348915506672
v 0.15624999999999994 1.3185825284553632 0.20770424243009136
v 0.15625 1.3181465504944625 0.20146946711596755
v 0.1562499999999999 1.2562347753141243 0.21206402203909933
v 0.15624999999999994 1.2557987973532234 0.20582924672497535
v -0.15625 1.3185825284553632 0.2077042424300913
v -0.15625 1.3181465504944625 0.20146946711596755
v -0.15625000000000003 1.2562347753141243 0.21206402203909927
v -0.15624999999999997 1.2557987973532234 0.2058292467249753
v 0.3067286863324404 1.1210317171998632 -0.16257529833635276
v 0.3512787442955919 1.1079780313957965 -0.2786351691893247
v 0.2746966198872325 0.8735795553416883 -0.14703907257314747
v 0.3192466778503841 0.8605258695376212 -0.26309894342611956
v 0.16790274573767638 1.1355541063350885 -0.21749759282396675
v 0.21245280370082792 1.1225004205310216 -0.3335574636769387
v 0.13587067929246865 0.8881019444769132 -0.2019613670607615
v 0.1804207372556202 0.8750482586728463 -0.31802123791373343
v 0.16805312499999997 1.1417018898195028 -0.21365776341817405
v 0.16805312499999991 1.1340708223776457 -0.33842461322090744
v 0.16805312500000008 0.8921681902140361 -0.19839562853445988
v 0.16805312499999997 0.884537122772179 -0.32316247833719325
v 0.011803125000000025 1.1417018898195028 -0.21365776341817402
v 0.011803124999999942 1.1340708223776457 -0.3384246132209074
v 0.011803124999999998 0.892168190214036 -0.19839562853445986
v 0.011803124999999998 0.884537122772179 -0.32316247833719325
v -0.0022519935411565717 1.1397433547803113 -0.21733063870940045
v -0.005524112079640681 1.1321149023146764 -0.34205473402882797
v -0.0022519935411565717 0.8902096551748445 -0.20206850382568617
v -0.005524112079640681 0.8825812027092095 -0.3267925991451137
v -0.15220059228749017 1.1399830644498625 -0.21341142025601356
v -0.15547271082597433 1.1323546119842276 -0.33813551557544114
v -0.15220059228749014 0.8904493648443959 -0.19814928537229942
v -0.15547271082597428 0.8828209123787607 -0.322873380691727
v -0.18395474552071975 1.063399941608284 -0.34264617517305723
v -0.17559913570686425 1.1506223414564452 -0.29445450836886705
v -0.1834585886832947 1.0694038278501665 -0.3535986716184898
v -0.1751029788694393 1.1566262276983277 -0.3054070048142996
v -0.24618676100062656 1.0691712121971575 -0.342301668135924
v -0.2378311511867711 1.1563936120453187 -0.2941100013317338
v -0.24569060416320154 1.0751750984390405 -0.3532541645813565
v -0.23733499434934613 1.1623974982872016 -0.3050624977771663
v -0.17494050332598512 1.153988260837403 -0.20518284658055747
v -0.17319526268225682 1.1670388920822792 -0.30431223253248274
v -0.17494050332598507 1.1415952000702303 -0.20681442398330815
v -0.1731952626822568 1.1546458313151062 -0.30594380993523335
v -0.23743098427325957 1.1541306355972367 -0.2062642902481107
v -0.23568574362953126 1.1671812668421124 -0.30539367620003594
v -0.23743098427325962 1.1417375748300638 -0.20789586765086135
v -0.23568574362953126 1.1547882060749395 -0.30702525360278665
v -0.175 1.1351354167534722 -0.20563060813485473
v -0.175 1.148188035975477 -0.30477509427223576
v -0.17500000000000002 0.9058637925607784 -0.2358147900857417
v -0.17500000000000002 0.9189164117827835 -0.3349592762231227
v -0.2375 1.1351354167534722 -0.20563060813485476
v -0.2375 1.148188035975477 -0.3047750942722359
v -0.2375 0.9058637925607784 -0.23581479008574172
v -0.2375 0.9189164117827835 -0.3349592762231227
v 0.12158473938601383 1.236601884200908 -0.25909260987954097
v 0.12463523512720914 1.2368669662263578 -0.3215175584758573
v 0.1546386310116743 1.1160563621917643 -0.2579892640851163
v 0.15768912675286945 1.1163214442172138 -0.3204142126814325
v 0.004198552996349886 1.2043605336992305 -0.26496578514672386
v 0.0072490487375450885 1.2046256157246804 -0.32739073374304
v 0.03725244462201027 1.0838150116900864 -0.2638624393522989
v 0.04030294036320553 1.0840800937155364 -0.3262873879486152
v -0.0398469755327235 1.235854381255732 -0.2634804344166287
v -0.039534562897622666 1.2342065656667842 -0.3259579271810655
v -0.013484591089507808 1.1137119224794454 -0.26012715981540013
v -0.013172178454407074 1.1120641068904977 -0.3226046525798369
v -0.1589791860690945 1.2101439699526564 -0.2633980430065921
v -0.1586667734339937 1.2084961543637087 -0.3258755357710289
v -0.1326168016258789 1.08800151117637 -0.2600447684053634
v -0.1323043889907781 1.086353695587422 -0.3225222611698001
v 0.2992989628720031 1.2151778902048977 -0.21427183567996733
v 0.3196161308733241 1.2122297066833294 -0.2733037837956211
v 0.309955407866195 1.0910245175879736 -0.20440369259583713
v 0.3302725758675162 1.088076334066405 -0.26343564071149095
v 0.18451246953045963 1.2022367007141235 -0.2531318689521568
v 0.20482963753178085 1.1992885171925547 -0.3121638170678107
v 0.19516891452465163 1.078083328097199 -0.24326372586802666
v 0.21548608252597273 1.0751351445756303 -0.3022956739836804
v -0.24083091136524648 1.0876304240330843 -0.31154720839238903
v -0.25499197053769407 1.087630424033084 -0.31815061873208755
v -0.2746929222023328 0.8941931469135336 -0.23892989180988772
v -0.2888539813747804 0.8941931469135336 -0.2455333021495862
v -0.2652339339957296 1.1115481385559023 -0.2592147574799666
v -0.2793949931681773 1.1115481385559027 -0.265818167819665
v -0.29909594483281593 0.9181108614363518 -0.18659744089746533
v -0.3132570040052635 0.9181108614363518 -0.19320085123716377
v -0.25401091430476763 1.0149597546296214 -0.3128601206656556
v -0.26533976164272577 1.0149597546296214 -0.3181428489374144
v -0.26173351565677316 0.9551907073819317 -0.29629894862194345
v -0.2730623629947312 0.9551907073819316 -0.3015816768937022
v -0.2893742014999706 1.0405422787928609 -0.23702330654357603
v -0.30070304883792864 1.0405422787928609 -0.24230603481533475
v -0.29709680285197615 0.9807732315451712 -0.22046213449986374
v -0.3084256501899342 0.9807732315451712 -0.22574486277162248
v -0.2258386645121112 1.050408968924157 -0.32890942562822223
v -0.2371675118500693 1.050408968924157 -0.3341921538999809
v -0.2277693148501125 1.035466707112234 -0.32476913261729423
v -0.2390981621880706 1.035466707112234 -0.3300518608890529
v -0.2788835953049156 1.0887827551690161 -0.2151542044451027
v -0.2902124426428736 1.0887827551690161 -0.2204369327168615
v -0.2808142456429169 1.0738404933570933 -0.2110139114341747
v -0.29214309298087493 1.0738404933570933 -0.21629663970593344
v 0.12499999999999994 0.7186009908729786 -0.2227265600470072
v 0.125 0.7279825609387949 -0.29398665945824987
v 0.125 0.6566356870371154 -0.23088444706076044
v 0.125 0.6660172571029315 -0.30214454647200306
v -0.125 0.7186009908729785 -0.2227265600470072
v -0.12500000000000003 0.7279825609387948 -0.2939866594582498
v -0.125 0.6566356870371153 -0.23088444706076044
v -0.125 0.6660172571029315 -0.30214454647200306
v -0.08169417382415925 0.7013325212887778 -0.2249999971972792
v -0.08169417382415922 0.7107140913545938 -0.2962600966085219
v -0.12588834764831844 0.6575164347481541 -0.2307684944248578
v -0.12588834764831847 0.6668980048139704 -0.3020285938361005
v -0.12588834764831844 0.7451486078294013 -0.21923149996970065
v -0.12588834764831844 0.7545301778952176 -0.2904915993809432
v -0.17008252147247768 0.7013325212887778 -0.22499999719727923
v -0.17008252147247768 0.710714091354594 -0.2962600966085219
v 0.16830582617584078 0.7013325212887778 -0.22499999719727923
v 0.16830582617584078 0.7107140913545937 -0.2962600966085218
v 0.12411165235168153 0.6575164347481542 -0.23076849442485775
v 0.12411165235168153 0.6668980048139704 -0.3020285938361005
v 0.12411165235168153 0.7451486078294014 -0.21923149996970068
v 0.12411165235168153 0.7545301778952176 -0.2904915993809432
v 0.07991747852752232 0.7013325212887779 -0.22499999719727917
v 0.07991747852752232 0.7107140913545938 -0.2962600966085218
v 0.16741750000000005 0.8872284115075897 -0.20052633895874034
v 0.16741750000000005 0.8974257702747812 -0.27798296875356926
v 0.16741750000000005 0.7013325000000004 -0.22499999999999998
v 0.16741750000000005 0.7115298587671918 -0.30245662979482896
v -0.17008250000000005 0.8872284115075897 -0.20052633895874034
v -0.1700825 0.8974257702747812 -0.27798296875356926
v -0.17008250000000005 0.7013325000000002 -0.22499999999999995
v -0.17008250000000003 0.7115298587671918 -0.3024566297948289
v -0.1817207781133967 1.3199218740242498 -0.19103009646711783
v -0.1978969684323043 1.3335022510893557 -0.249853172088306
v -0.16596095060433183 1.2001175305460707 -0.22302301944466185
v -0.18213714092323943 1.213697907611177 -0.2818460950658501
v -0.2715016090767606 1.3025870923888234 -0.17034265493414996
v -0.2876777993956682 1.3161674694539296 -0.2291657305553381
v -0.2557417815676958 1.1827827489106448 -0.20233557791169396
v -0.2719179718866033 1.1963631259757508 -0.2611586535328821
vt 0.341796875 0.837890625
vt 0.341796875 0.859375
vt 0.3203125 0.859375
vt 0.3203125 0.837890625
vt 0.341796875 0.767578125
vt 0.341796875 0.7890625
vt 0.3203125 0.7890625
vt 0.3203125 0.767578125
vt 0.44921875 0.7421875
vt 0.4375 0.7421875
vt 0.4375 0.7265625
vt 0.44921875 0.7265625
vt 0.44921875 0.65625
vt 0.44921875 0.671875
vt 0.4375 0.671875
vt 0.4375 0.65625
vt 0.3125 0.97265625
vt 0.34765625 0.97265625
vt 0.34765625 0.984375
vt 0.3125 0.984375
vt 0.35546875 0.68359375
vt 0.35546875 0.6953125
vt 0.3203125 0.6953125
vt 0.3203125 0.68359375
vt 0.24609375 0.8671875
vt 0.24609375 0.8828125
vt 0.2109375 0.8828125
vt 0.2109375 0.8671875
vt 0.30859375 0.8515625
vt 0.2734375 0.8515625
vt 0.2734375 0.8359375
vt 0.30859375 0.8359375
vt 0.44921875 0.6484375
vt 0.4375 0.6484375
vt 0.4375 0.6328125
vt 0.44921875 0.6328125
vt 0.44921875 0.5859375
vt 0.44921875 0.6015625
vt 0.4375 0.6015625
vt 0.4375 0.5859375
vt 0.328125 0.94921875
vt 0.36328125 0.94921875
vt 0.36328125 0.9609375
vt 0.328125 0.9609375
vt 0.32421875 0.66015625
vt 0.32421875 0.671875
vt 0.2890625 0.671875
vt 0.2890625 0.66015625
vt 0.31640625 0.9453125
vt 0.31640625 0.9609375
vt 0.28125 0.9609375
vt 0.28125 0.9453125
vt 0.33203125 0.828125
vt 0.296875 0.828125
vt 0.296875 0.8125
vt 0.33203125 0.8125
vt 0.015625 0.578125
vt 0.015625 0.59375
vt 0 0.59375
vt 0 0.578125
vt 0.0390625 0.5859375
vt 0.0234375 0.5859375
vt 0.0234375 0.5703125
vt 0.0390625 0.5703125
vt 0.3515625 0.7890625
vt 0.3515625 0.7734375
vt 0.375 0.7734375
vt 0.375 0.7890625
vt 0.3828125 0.984375
vt 0.359375 0.984375
vt 0.359375 0.96875
vt 0.3828125 0.96875
vt 0.0546875 0.640625
vt 0.03125 0.640625
vt 0.03125 0.625
vt 0.0546875 0.625
vt 0.0859375 0.625
vt 0.0859375 0.640625
vt 0.0625 0.640625
vt 0.0625 0.625
vt 0.0625 0.5703125
vt 0.0625 0.5859375
vt 0.046875 0.5859375
vt 0.046875 0.5703125
vt 0.171875 0.5859375
vt 0.15625 0.5859375
vt 0.15625 0.5703125
vt 0.171875 0.5703125
vt 0.3203125 0.640625
vt 0.3203125 0.625
vt 0.34375 0.625
vt 0.34375 0.640625
vt 0.375 0.640625
vt 0.3515625 0.640625
vt 0.3515625 0.625
vt 0.375 0.625
vt 0.390625 0.8203125
vt 0.3671875 0.8203125
vt 0.3671875 0.8046875
vt 0.390625 0.8046875
vt 0.390625 0.6953125
vt 0.390625 0.7109375
vt 0.3671875 0.7109375
vt 0.3671875 0.6953125
vt 0.2265625 0.626953125
vt 0.2265625 0.6796875
vt 0.21875 0.6796875
vt 0.21875 0.626953125
vt 0.328125 0.705078125
vt 0.328125 0.7578125
vt 0.3203125 0.7578125
vt 0.3203125 0.705078125
vt 0.296875 0.8046875
vt 0.296875 0.796875
vt 0.359375 0.796875
vt 0.359375 0.8046875
vt 0.03125 0.6875
vt 0.03125 0.6953125
vt 0.09375 0.6953125
vt 0.09375 0.6875
vt 0.1328125 0.869140625
vt 0.1328125 0.921875
vt 0.0703125 0.921875
vt 0.0703125 0.869140625
vt 0.0625 0.869140625
vt 0.0625 0.921875
vt 0 0.921875
vt 0 0.869140625
vt 0.2734375 0.607421875
vt 0.2734375 0.65625
vt 0.265625 0.65625
vt 0.265625 0.607421875
vt 0.171875 0.599609375
vt 0.171875 0.6484375
vt 0.1640625 0.6484375
vt 0.1640625 0.599609375
vt 0.3046875 0.9375
vt 0.3046875 0.9296875
vt 0.3671875 0.9296875
vt 0.3671875 0.9375
vt 0.3046875 0.9140625
vt 0.3046875 0.921875
vt 0.3671875 0.921875
vt 0.3671875 0.9140625
vt 0.203125 0.873046875
vt 0.203125 0.921875
vt 0.140625 0.921875
vt 0.140625 0.873046875
vt 0.125 0.810546875
vt 0.125 0.859375
vt 0.0625 0.859375
vt 0.0625 0.810546875
vt 0.005859375 0.6044921875
vt 0.005859375 0.671875
vt 0 0.671875
vt 0 0.6044921875
vt 0.021484375 0.6044921875
vt 0.021484375 0.671875
vt 0.015625 0.671875
vt 0.015625 0.6044921875
vt 0.3671875 0.6171875
vt 0.3671875 0.611328125
vt 0.41796875 0.611328125
vt 0.41796875 0.6171875
vt 0.390625 0.978515625
vt 0.390625 0.984375
vt 0.44140625 0.984375
vt 0.44140625 0.978515625
vt 0.11328125 0.9326171875
vt 0.11328125 1
vt 0.0625 1
vt 0.0625 0.9326171875
vt 0.05078125 0.9326171875
vt 0.05078125 1
vt 0 1
vt 0 0.9326171875
vt 0.185546875 0.5849609375
vt 0.185546875 0.6484375
vt 0.1796875 0.6484375
vt 0.1796875 0.5849609375
vt 0.287109375 0.5849609375
vt 0.287109375 0.6484375
vt 0.28125 0.6484375
vt 0.28125 0.5849609375
vt 0.390625 0.96875
vt 0.390625 0.962890625
vt 0.44140625 0.962890625
vt 0.44140625 0.96875
vt 0.390625 0.947265625
vt 0.390625 0.953125
vt 0.44140625 0.953125
vt 0.44140625 0.947265625
vt 0.05078125 0.7958984375
vt 0.05078125 0.859375
vt 0 0.859375
vt 0 0.7958984375
vt 0.17578125 0.9365234375
vt 0.17578125 1
vt 0.125 1
vt 0.125 0.9365234375
vt 0.3828125 0.552734375
vt 0.3828125 0.578125
vt 0.375 0.578125
vt 0.375 0.552734375
vt 0.4296875 0.560546875
vt 0.4296875 0.5859375
vt 0.421875 0.5859375
vt 0.421875 0.560546875
vt 0.3046875 0.90625
vt 0.3046875 0.8984375
vt 0.3671875 0.8984375
vt 0.3671875 0.90625
vt 0.3046875 0.8828125
vt 0.3046875 0.890625
vt 0.3671875 0.890625
vt 0.3671875 0.8828125
vt 0.265625 0.833984375
vt 0.265625 0.859375
vt 0.203125 0.859375
vt 0.203125 0.833984375
vt 0.125 0.771484375
vt 0.125 0.796875
vt 0.0625 0.796875
vt 0.0625 0.771484375
vt 0.4296875 0.91015625
vt 0.4296875 0.9375
vt 0.421875 0.9375
vt 0.421875 0.91015625
vt 0.078125 0.55078125
vt 0.078125 0.578125
vt 0.0703125 0.578125
vt 0.0703125 0.55078125
vt 0.3046875 0.875
vt 0.3046875 0.8671875
vt 0.3671875 0.8671875
vt 0.3671875 0.875
vt 0.3125 0.9921875
vt 0.3125 1
vt 0.375 1
vt 0.375 0.9921875
vt 0.1953125 0.79296875
vt 0.1953125 0.8203125
vt 0.1328125 0.8203125
vt 0.1328125 0.79296875
vt 0.1953125 0.83203125
vt 0.1953125 0.859375
vt 0.1328125 0.859375
vt 0.1328125 0.83203125
vt 0.318359375 0.556640625
vt 0.318359375 0.6015625
vt 0.3125 0.6015625
vt 0.3125 0.556640625
vt 0.333984375 0.556640625
vt 0.333984375 0.6015625
vt 0.328125 0.6015625
vt 0.328125 0.556640625
vt 0.4609375 0.6875
vt 0.4609375 0.681640625
vt 0.478515625 0.681640625
vt 0.478515625 0.6875
vt 0.4609375 0.666015625
vt 0.4609375 0.671875
vt 0.478515625 0.671875
vt 0.478515625 0.666015625
vt 0.158203125 0.697265625
vt 0.158203125 0.7421875
vt 0.140625 0.7421875
vt 0.140625 0.697265625
vt 0.126953125 0.697265625
vt 0.126953125 0.7421875
vt 0.109375 0.7421875
vt 0.109375 0.697265625
vt 0.3828125 0.5263671875
vt 0.3828125 0.5390625
vt 0.375 0.5390625
vt 0.375 0.5263671875
vt 0.4765625 0.9248046875
vt 0.4765625 0.9375
vt 0.46875 0.9375
vt 0.46875 0.9248046875
vt 0.3359375 0.7109375
vt 0.3359375 0.703125
vt 0.3525390625 0.703125
vt 0.3525390625 0.7109375
vt 0.453125 0.9453125
vt 0.453125 0.953125
vt 0.4697265625 0.953125
vt 0.4697265625 0.9453125
vt 0.4384765625 0.8857421875
vt 0.4384765625 0.8984375
vt 0.421875 0.8984375
vt 0.421875 0.8857421875
vt 0.1025390625 0.5654296875
vt 0.1025390625 0.578125
vt 0.0859375 0.578125
vt 0.0859375 0.5654296875
vt 0.3994140625 0.521484375
vt 0.3994140625 0.53125
vt 0.390625 0.53125
vt 0.390625 0.521484375
vt 0.4462890625 0.521484375
vt 0.4462890625 0.53125
vt 0.4375 0.53125
vt 0.4375 0.521484375
vt 0.109375 0.5546875
vt 0.109375 0.5458984375
vt 0.12890625 0.5458984375
vt 0.12890625 0.5546875
vt 0.390625 0.5458984375
vt 0.390625 0.5546875
vt 0.41015625 0.5546875
vt 0.41015625 0.5458984375
vt 0.44140625 0.708984375
vt 0.44140625 0.71875
vt 0.421875 0.71875
vt 0.421875 0.708984375
vt 0.44140625 0.841796875
vt 0.44140625 0.8515625
vt 0.421875 0.8515625
vt 0.421875 0.841796875
vt 0.4775390625 0.552734375
vt 0.4775390625 0.5625
vt 0.46875 0.5625
vt 0.46875 0.552734375
vt 0.4697265625 0.521484375
vt 0.4697265625 0.53125
vt 0.4609375 0.53125
vt 0.4609375 0.521484375
vt 0.4375 0.5546875
vt 0.4375 0.5458984375
vt 0.45703125 0.5458984375
vt 0.45703125 0.5546875
vt 0.453125 0.9912109375
vt 0.453125 1
vt 0.47265625 1
vt 0.47265625 0.9912109375
vt 0.44921875 0.685546875
vt 0.44921875 0.6953125
vt 0.4296875 0.6953125
vt 0.4296875 0.685546875
vt 0.44921875 0.787109375
vt 0.44921875 0.796875
vt 0.4296875 0.796875
vt 0.4296875 0.787109375
vt 0.171875 0.5390625
vt 0.171875 0.5625
vt 0.1640625 0.5625
vt 0.1640625 0.5390625
vt 0.4453125 0.8046875
vt 0.4453125 0.828125
vt 0.4375 0.828125
vt 0.4375 0.8046875
vt 0.453125 0.8125
vt 0.453125 0.8046875
vt 0.4697265625 0.8046875
vt 0.4697265625 0.8125
vt 0.453125 0.7109375
vt 0.453125 0.71875
vt 0.4697265625 0.71875
vt 0.4697265625 0.7109375
vt 0.2509765625 0.6328125
vt 0.2509765625 0.65625
vt 0.234375 0.65625
vt 0.234375 0.6328125
vt 0.3525390625 0.6484375
vt 0.3525390625 0.671875
vt 0.3359375 0.671875
vt 0.3359375 0.6484375
vt 0.201171875 0.5859375
vt 0.201171875 0.640625
vt 0.1953125 0.640625
vt 0.1953125 0.5859375
vt 0.380859375 0.90625
vt 0.380859375 0.9609375
vt 0.375 0.9609375
vt 0.375 0.90625
vt 0.4609375 0.65625
vt 0.4609375 0.650390625
vt 0.478515625 0.650390625
vt 0.478515625 0.65625
vt 0.4609375 0.634765625
vt 0.4609375 0.640625
vt 0.478515625 0.640625
vt 0.478515625 0.634765625
vt 0.095703125 0.703125
vt 0.095703125 0.7578125
vt 0.078125 0.7578125
vt 0.078125 0.703125
vt 0.064453125 0.703125
vt 0.064453125 0.7578125
vt 0.046875 0.7578125
vt 0.046875 0.703125
vt 0.349609375 0.556640625
vt 0.349609375 0.6015625
vt 0.34375 0.6015625
vt 0.34375 0.556640625
vt 0.365234375 0.556640625
vt 0.365234375 0.6015625
vt 0.359375 0.6015625
vt 0.359375 0.556640625
vt 0.4609375 0.625
vt 0.4609375 0.619140625
vt 0.478515625 0.619140625
vt 0.478515625 0.625
vt 0.4609375 0.603515625
vt 0.4609375 0.609375
vt 0.478515625 0.609375
vt 0.478515625 0.603515625
vt 0.291015625 0.861328125
vt 0.291015625 0.90625
vt 0.2734375 0.90625
vt 0.2734375 0.861328125
vt 0.275390625 0.705078125
vt 0.275390625 0.75
vt 0.2578125 0.75
vt 0.2578125 0.705078125
vt 0.0859375 0.5185546875
vt 0.0859375 0.53125
vt 0.078125 0.53125
vt 0.078125 0.5185546875
vt 0.1015625 0.5185546875
vt 0.1015625 0.53125
vt 0.09375 0.53125
vt 0.09375 0.5185546875
vt 0.046875 0.5390625
vt 0.046875 0.53125
vt 0.0634765625 0.53125
vt 0.0634765625 0.5390625
vt 0.4609375 0.7890625
vt 0.4609375 0.796875
vt 0.4775390625 0.796875
vt 0.4775390625 0.7890625
vt 0.4384765625 0.8623046875
vt 0.4384765625 0.875
vt 0.421875 0.875
vt 0.421875 0.8623046875
vt 0.1337890625 0.5654296875
vt 0.1337890625 0.578125
vt 0.1171875 0.578125
vt 0.1171875 0.5654296875
vt 0.0556640625 0.513671875
vt 0.0556640625 0.5234375
vt 0.046875 0.5234375
vt 0.046875 0.513671875
vt 0.2666015625 0.513671875
vt 0.2666015625 0.5234375
vt 0.2578125 0.5234375
vt 0.2578125 0.513671875
vt 0.453125 0.9765625
vt 0.453125 0.9677734375
vt 0.47265625 0.9677734375
vt 0.47265625 0.9765625
vt 0.453125 0.9052734375
vt 0.453125 0.9140625
vt 0.47265625 0.9140625
vt 0.47265625 0.9052734375
vt 0.01953125 0.552734375
vt 0.01953125 0.5625
vt 0 0.5625
vt 0 0.552734375
vt 0.44921875 0.615234375
vt 0.44921875 0.625
vt 0.4296875 0.625
vt 0.4296875 0.615234375
vt 0.234375 0.5390625
vt 0.234375 0.5625
vt 0.2265625 0.5625
vt 0.2265625 0.5390625
vt 0.4453125 0.75
vt 0.4453125 0.7734375
vt 0.4375 0.7734375
vt 0.4375 0.75
vt 0.4609375 0.7421875
vt 0.4609375 0.734375
vt 0.4775390625 0.734375
vt 0.4775390625 0.7421875
vt 0.4609375 0.6953125
vt 0.4609375 0.703125
vt 0.4775390625 0.703125
vt 0.4775390625 0.6953125
vt 0.1494140625 0.625
vt 0.1494140625 0.6484375
vt 0.1328125 0.6484375
vt 0.1328125 0.625
vt 0.1181640625 0.625
vt 0.1181640625 0.6484375
vt 0.1015625 0.6484375
vt 0.1015625 0.625
vt 0.2900390625 0.513671875
vt 0.2900390625 0.5234375
vt 0.28125 0.5234375
vt 0.28125 0.513671875
vt 0.4931640625 0.990234375
vt 0.4931640625 1
vt 0.484375 1
vt 0.484375 0.990234375
vt 0.453125 0.890625
vt 0.453125 0.8818359375
vt 0.47265625 0.8818359375
vt 0.47265625 0.890625
vt 0.453125 0.8583984375
vt 0.453125 0.8671875
vt 0.47265625 0.8671875
vt 0.47265625 0.8583984375
vt 0.45703125 0.927734375
vt 0.45703125 0.9375
vt 0.4375 0.9375
vt 0.4375 0.927734375
vt 0.05078125 0.552734375
vt 0.05078125 0.5625
vt 0.03125 0.5625
vt 0.03125 0.552734375
vt 0.380859375 0.84375
vt 0.380859375 0.8984375
vt 0.375 0.8984375
vt 0.375 0.84375
vt 0.240234375 0.5703125
vt 0.240234375 0.625
vt 0.234375 0.625
vt 0.234375 0.5703125
vt 0.4609375 0.59375
vt 0.4609375 0.587890625
vt 0.478515625 0.587890625
vt 0.478515625 0.59375
vt 0.4609375 0.572265625
vt 0.4609375 0.578125
vt 0.478515625 0.578125
vt 0.478515625 0.572265625
vt 0.197265625 0.6953125
vt 0.197265625 0.75
vt 0.1796875 0.75
vt 0.1796875 0.6953125
vt 0.267578125 0.9453125
vt 0.267578125 1
vt 0.25 1
vt 0.25 0.9453125
vt 0.2421875 0.7890625
vt 0.2421875 0.8203125
vt 0.203125 0.8203125
vt 0.203125 0.7890625
vt 0.25 0.890625
vt 0.25 0.921875
vt 0.2109375 0.921875
vt 0.2109375 0.890625
vt 0.1796875 0.5703125
vt 0.1796875 0.53125
vt 0.1845703125 0.53125
vt 0.1845703125 0.5703125
vt 0.2109375 0.53125
vt 0.2109375 0.5703125
vt 0.2158203125 0.5703125
vt 0.2158203125 0.53125
vt 0.3330078125 0.515625
vt 0.3330078125 0.546875
vt 0.328125 0.546875
vt 0.328125 0.515625
vt 0.3173828125 0.515625
vt 0.3173828125 0.546875
vt 0.3125 0.546875
vt 0.3125 0.515625
vt 0.0390625 0.75
vt 0.0390625 0.78125
vt 0 0.78125
vt 0 0.75
vt 0.171875 0.75
vt 0.171875 0.78125
vt 0.1328125 0.78125
vt 0.1328125 0.75
vt 0.28125 0.5703125
vt 0.28125 0.53125
vt 0.2861328125 0.53125
vt 0.2861328125 0.5703125
vt 0.1484375 0.5234375
vt 0.1484375 0.5625
vt 0.1533203125 0.5625
vt 0.1533203125 0.5234375
vt 0.3642578125 0.515625
vt 0.3642578125 0.546875
vt 0.359375 0.546875
vt 0.359375 0.515625
vt 0.3486328125 0.515625
vt 0.3486328125 0.546875
vt 0.34375 0.546875
vt 0.34375 0.515625
vt 0.2578125 0.6640625
vt 0.2578125 0.6953125
vt 0.2421875 0.6953125
vt 0.2421875 0.6640625
vt 0.28125 0.6640625
vt 0.28125 0.6953125
vt 0.265625 0.6953125
vt 0.265625 0.6640625
vt 0.1796875 0.5234375
vt 0.1796875 0.5078125
vt 0.1845703125 0.5078125
vt 0.1845703125 0.5234375
vt 0.2109375 0.5078125
vt 0.2109375 0.5234375
vt 0.2158203125 0.5234375
vt 0.2158203125 0.5078125
vt 0.0048828125 0.5078125
vt 0.0048828125 0.5390625
vt 0 0.5390625
vt 0 0.5078125
vt 0.4267578125 0.515625
vt 0.4267578125 0.546875
vt 0.421875 0.546875
vt 0.421875 0.515625
vt 0.1171875 0.65625
vt 0.1171875 0.6875
vt 0.1015625 0.6875
vt 0.1015625 0.65625
vt 0.140625 0.65625
vt 0.140625 0.6875
vt 0.125 0.6875
vt 0.125 0.65625
vt 0.484375 0.9453125
vt 0.484375 0.9296875
vt 0.4892578125 0.9296875
vt 0.4892578125 0.9453125
vt 0.484375 0.90625
vt 0.484375 0.921875
vt 0.4892578125 0.921875
vt 0.4892578125 0.90625
vt 0.0361328125 0.5078125
vt 0.0361328125 0.5390625
vt 0.03125 0.5390625
vt 0.03125 0.5078125
vt 0.0205078125 0.5078125
vt 0.0205078125 0.5390625
vt 0.015625 0.5390625
vt 0.015625 0.5078125
vt 0.2890625 0.796875
vt 0.2890625 0.8203125
vt 0.25 0.8203125
vt 0.25 0.796875
vt 0.25 0.7265625
vt 0.25 0.75
vt 0.2109375 0.75
vt 0.2109375 0.7265625
vt 0.2578125 0.90625
vt 0.2578125 0.8671875
vt 0.2646484375 0.8671875
vt 0.2646484375 0.90625
vt 0.25 0.5859375
vt 0.25 0.625
vt 0.2568359375 0.625
vt 0.2568359375 0.5859375
vt 0.2724609375 0.53125
vt 0.2724609375 0.5546875
vt 0.265625 0.5546875
vt 0.265625 0.53125
vt 0.3037109375 0.5390625
vt 0.3037109375 0.5625
vt 0.296875 0.5625
vt 0.296875 0.5390625
vt 0.0390625 0.71875
vt 0.0390625 0.7421875
vt 0 0.7421875
vt 0 0.71875
vt 0.296875 0.9140625
vt 0.296875 0.9375
vt 0.2578125 0.9375
vt 0.2578125 0.9140625
vt 0.2109375 0.6171875
vt 0.2109375 0.578125
vt 0.2177734375 0.578125
vt 0.2177734375 0.6171875
vt 0.296875 0.5703125
vt 0.296875 0.609375
vt 0.3037109375 0.609375
vt 0.3037109375 0.5703125
vt 0.4599609375 0.75
vt 0.4599609375 0.7734375
vt 0.453125 0.7734375
vt 0.453125 0.75
vt 0.4599609375 0.8203125
vt 0.4599609375 0.84375
vt 0.453125 0.84375
vt 0.453125 0.8203125
vt 0.1962890625 0.484375
vt 0.1962890625 0.4921875
vt 0.1953125 0.4921875
vt 0.1953125 0.484375
vt 0.5087890625 0.78125
vt 0.5087890625 0.7890625
vt 0.5078125 0.7890625
vt 0.5078125 0.78125
vt 0.4921875 0.6015625
vt 0.4921875 0.6005859375
vt 0.52734375 0.6005859375
vt 0.52734375 0.6015625
vt 0.4921875 0.5849609375
vt 0.4921875 0.5859375
vt 0.52734375 0.5859375
vt 0.52734375 0.5849609375
vt 0.42578125 0.7421875
vt 0.42578125 0.75
vt 0.390625 0.75
vt 0.390625 0.7421875
vt 0.42578125 0.7578125
vt 0.42578125 0.765625
vt 0.390625 0.765625
vt 0.390625 0.7578125
vt 0.2431640625 0.484375
vt 0.2431640625 0.4921875
vt 0.2421875 0.4921875
vt 0.2421875 0.484375
vt 0.5087890625 0.7265625
vt 0.5087890625 0.734375
vt 0.5078125 0.734375
vt 0.5078125 0.7265625
vt 0.4921875 0.75
vt 0.4921875 0.7490234375
vt 0.53125 0.7490234375
vt 0.53125 0.75
vt 0.4921875 0.7099609375
vt 0.4921875 0.7109375
vt 0.53125 0.7109375
vt 0.53125 0.7099609375
vt 0.40625 0.6640625
vt 0.40625 0.671875
vt 0.3671875 0.671875
vt 0.3671875 0.6640625
vt 0.40625 0.6796875
vt 0.40625 0.6875
vt 0.3671875 0.6875
vt 0.3671875 0.6796875
vt 0.3056640625 0.484375
vt 0.3056640625 0.4921875
vt 0.3046875 0.4921875
vt 0.3046875 0.484375
vt 0.3212890625 0.484375
vt 0.3212890625 0.4921875
vt 0.3203125 0.4921875
vt 0.3203125 0.484375
vt 0.3046875 0.5078125
vt 0.3046875 0.5068359375
vt 0.34375 0.5068359375
vt 0.34375 0.5078125
vt 0.4921875 0.6943359375
vt 0.4921875 0.6953125
vt 0.53125 0.6953125
vt 0.53125 0.6943359375
vt 0.4140625 0.828125
vt 0.4140625 0.8359375
vt 0.375 0.8359375
vt 0.375 0.828125
vt 0.40625 0.6484375
vt 0.40625 0.65625
vt 0.3671875 0.65625
vt 0.3671875 0.6484375
vt 0.3369140625 0.484375
vt 0.3369140625 0.4921875
vt 0.3359375 0.4921875
vt 0.3359375 0.484375
vt 0.3837890625 0.484375
vt 0.3837890625 0.4921875
vt 0.3828125 0.4921875
vt 0.3828125 0.484375
vt 0.4921875 0.5703125
vt 0.4921875 0.5693359375
vt 0.52734375 0.5693359375
vt 0.52734375 0.5703125
vt 0.4375 0.5068359375
vt 0.4375 0.5078125
vt 0.47265625 0.5078125
vt 0.47265625 0.5068359375
vt 0.06640625 0.59375
vt 0.06640625 0.6015625
vt 0.03125 0.6015625
vt 0.03125 0.59375
vt 0.42578125 0.7265625
vt 0.42578125 0.734375
vt 0.390625 0.734375
vt 0.390625 0.7265625
vt 0.2275390625 0.4765625
vt 0.2275390625 0.5078125
vt 0.2265625 0.5078125
vt 0.2265625 0.4765625
vt 0.3525390625 0.4765625
vt 0.3525390625 0.5078125
vt 0.3515625 0.5078125
vt 0.3515625 0.4765625
vt 0.4921875 0.8046875
vt 0.4921875 0.8037109375
vt 0.546875 0.8037109375
vt 0.546875 0.8046875
vt 0.4921875 0.7646484375
vt 0.4921875 0.765625
vt 0.546875 0.765625
vt 0.546875 0.7646484375
vt 0.2421875 0.9296875
vt 0.2421875 0.9609375
vt 0.1875 0.9609375
vt 0.1875 0.9296875
vt 0.2421875 0.96875
vt 0.2421875 1
vt 0.1875 1
vt 0.1875 0.96875
vt 0.181640625 0.490234375
vt 0.181640625 0.5
vt 0.1796875 0.5
vt 0.1796875 0.490234375
vt 0.212890625 0.490234375
vt 0.212890625 0.5
vt 0.2109375 0.5
vt 0.2109375 0.490234375
vt 0.5078125 0.96875
vt 0.5078125 0.966796875
vt 0.513671875 0.966796875
vt 0.513671875 0.96875
vt 0.5078125 0.896484375
vt 0.5078125 0.8984375
vt 0.513671875 0.8984375
vt 0.513671875 0.896484375
vt 0.076171875 0.498046875
vt 0.076171875 0.5078125
vt 0.0703125 0.5078125
vt 0.0703125 0.498046875
vt 0.490234375 0.513671875
vt 0.490234375 0.5234375
vt 0.484375 0.5234375
vt 0.484375 0.513671875
vt 0.259765625 0.490234375
vt 0.259765625 0.5
vt 0.2578125 0.5
vt 0.2578125 0.490234375
vt 0.275390625 0.490234375
vt 0.275390625 0.5
vt 0.2734375 0.5
vt 0.2734375 0.490234375
vt 0.5078125 0.8828125
vt 0.5078125 0.880859375
vt 0.513671875 0.880859375
vt 0.513671875 0.8828125
vt 0.5078125 0.865234375
vt 0.5078125 0.8671875
vt 0.513671875 0.8671875
vt 0.513671875 0.865234375
vt 0.107421875 0.498046875
vt 0.107421875 0.5078125
vt 0.1015625 0.5078125
vt 0.1015625 0.498046875
vt 0.091796875 0.498046875
vt 0.091796875 0.5078125
vt 0.0859375 0.5078125
vt 0.0859375 0.498046875
vt 0.3994140625 0.484375
vt 0.3994140625 0.4921875
vt 0.3984375 0.4921875
vt 0.3984375 0.484375
vt 0.4150390625 0.484375
vt 0.4150390625 0.4921875
vt 0.4140625 0.4921875
vt 0.4140625 0.484375
vt 0.4921875 0.6796875
vt 0.4921875 0.6787109375
vt 0.53125 0.6787109375
vt 0.53125 0.6796875
vt 0.4921875 0.6630859375
vt 0.4921875 0.6640625
vt 0.53125 0.6640625
vt 0.53125 0.6630859375
vt 0.0703125 0.609375
vt 0.0703125 0.6171875
vt 0.03125 0.6171875
vt 0.03125 0.609375
vt 0.421875 0.9921875
vt 0.421875 1
vt 0.3828125 1
vt 0.3828125 0.9921875
vt 0.4306640625 0.484375
vt 0.4306640625 0.4921875
vt 0.4296875 0.4921875
vt 0.4296875 0.484375
vt 0.4462890625 0.484375
vt 0.4462890625 0.4921875
vt 0.4453125 0.4921875
vt 0.4453125 0.484375
vt 0.4921875 0.6484375
vt 0.4921875 0.6474609375
vt 0.53125 0.6474609375
vt 0.53125 0.6484375
vt 0.4921875 0.6318359375
vt 0.4921875 0.6328125
vt 0.53125 0.6328125
vt 0.53125 0.6318359375
vt 0.421875 0.7890625
vt 0.421875 0.796875
vt 0.3828125 0.796875
vt 0.3828125 0.7890625
vt 0.1171875 0.609375
vt 0.1171875 0.6171875
vt 0.078125 0.6171875
vt 0.078125 0.609375
vt 0.4619140625 0.484375
vt 0.4619140625 0.4921875
vt 0.4609375 0.4921875
vt 0.4609375 0.484375
vt 0.5009765625 0.484375
vt 0.5009765625 0.4921875
vt 0.5 0.4921875
vt 0.5 0.484375
vt 0.4921875 0.6171875
vt 0.4921875 0.6162109375
vt 0.53125 0.6162109375
vt 0.53125 0.6171875
vt 0.390625 0.5068359375
vt 0.390625 0.5078125
vt 0.4296875 0.5078125
vt 0.4296875 0.5068359375
vt 0.359375 0.609375
vt 0.359375 0.6171875
vt 0.3203125 0.6171875
vt 0.3203125 0.609375
vt 0.421875 0.7734375
vt 0.421875 0.78125
vt 0.3828125 0.78125
vt 0.3828125 0.7734375
vt 0.1640625 0.65625
vt 0.1640625 0.6875
vt 0.1484375 0.6875
vt 0.1484375 0.65625
vt 0.1875 0.65625
vt 0.1875 0.6875
vt 0.171875 0.6875
vt 0.171875 0.65625
vt 0.390625 0.9375
vt 0.390625 0.921875
vt 0.4091796875 0.921875
vt 0.4091796875 0.9375
vt 0.390625 0.8984375
vt 0.390625 0.9140625
vt 0.4091796875 0.9140625
vt 0.4091796875 0.8984375
vt 0.3076171875 0.7578125
vt 0.3076171875 0.7890625
vt 0.2890625 0.7890625
vt 0.2890625 0.7578125
vt 0.0185546875 0.6796875
vt 0.0185546875 0.7109375
vt 0 0.7109375
vt 0 0.6796875
vt 0.046875 0.6484375
vt 0.046875 0.6796875
vt 0.03125 0.6796875
vt 0.03125 0.6484375
vt 0.0703125 0.6484375
vt 0.0703125 0.6796875
vt 0.0546875 0.6796875
vt 0.0546875 0.6484375
vt 0.125 0.6171875
vt 0.125 0.6015625
vt 0.14453125 0.6015625
vt 0.14453125 0.6171875
vt 0.3828125 0.625
vt 0.3828125 0.640625
vt 0.40234375 0.640625
vt 0.40234375 0.625
vt 0.23046875 0.6875
vt 0.23046875 0.71875
vt 0.2109375 0.71875
vt 0.2109375 0.6875
vt 0.30078125 0.96875
vt 0.30078125 1
vt 0.28125 1
vt 0.28125 0.96875
vt 0.09375 0.6484375
vt 0.09375 0.6796875
vt 0.078125 0.6796875
vt 0.078125 0.6484375
vt 0.2109375 0.6484375
vt 0.2109375 0.6796875
vt 0.1953125 0.6796875
vt 0.1953125 0.6484375
vt 0.390625 0.890625
vt 0.390625 0.875
vt 0.4091796875 0.875
vt 0.4091796875 0.890625
vt 0.390625 0.8515625
vt 0.390625 0.8671875
vt 0.4091796875 0.8671875
vt 0.4091796875 0.8515625
vt 0.3076171875 0.6796875
vt 0.3076171875 0.7109375
vt 0.2890625 0.7109375
vt 0.2890625 0.6796875
vt 0.3076171875 0.71875
vt 0.3076171875 0.75
vt 0.2890625 0.75
vt 0.2890625 0.71875
vt 0.5126953125 0.927734375
vt 0.5126953125 0.9296875
vt 0.5 0.9296875
vt 0.5 0.927734375
vt 0.5126953125 0.912109375
vt 0.5126953125 0.9140625
vt 0.5 0.9140625
vt 0.5 0.912109375
vt 0.109375 0.53125
vt 0.109375 0.5185546875
vt 0.1171875 0.5185546875
vt 0.1171875 0.53125
vt 0.125 0.5185546875
vt 0.125 0.53125
vt 0.1328125 0.53125
vt 0.1328125 0.5185546875
vt 0.375 0.498046875
vt 0.375 0.5
vt 0.3671875 0.5
vt 0.3671875 0.498046875
vt 0.296875 0.498046875
vt 0.296875 0.5
vt 0.2890625 0.5
vt 0.2890625 0.498046875
vt 0.1455078125 0.498046875
vt 0.1455078125 0.5
vt 0.1328125 0.5
vt 0.1328125 0.498046875
vt 0.5126953125 0.849609375
vt 0.5126953125 0.8515625
vt 0.5 0.8515625
vt 0.5 0.849609375
vt 0.46875 0.84375
vt 0.46875 0.8310546875
vt 0.4765625 0.8310546875
vt 0.4765625 0.84375
vt 0.1640625 0.5185546875
vt 0.1640625 0.53125
vt 0.171875 0.53125
vt 0.171875 0.5185546875
vt 0.5078125 0.521484375
vt 0.5078125 0.5234375
vt 0.5 0.5234375
vt 0.5 0.521484375
vt 0.5078125 0.537109375
vt 0.5078125 0.5390625
vt 0.5 0.5390625
vt 0.5 0.537109375
vt 0.3642578125 0.830078125
vt 0.3642578125 0.859375
vt 0.3515625 0.859375
vt 0.3515625 0.830078125
vt 0.3095703125 0.619140625
vt 0.3095703125 0.6484375
vt 0.296875 0.6484375
vt 0.296875 0.619140625
vt 0.46875 0.78125
vt 0.46875 0.7685546875
vt 0.4765625 0.7685546875
vt 0.4765625 0.78125
vt 0.2265625 0.5185546875
vt 0.2265625 0.53125
vt 0.234375 0.53125
vt 0.234375 0.5185546875
vt 0.421875 0.666015625
vt 0.421875 0.6953125
vt 0.4140625 0.6953125
vt 0.4140625 0.666015625
vt 0.2734375 0.564453125
vt 0.2734375 0.59375
vt 0.265625 0.59375
vt 0.265625 0.564453125
vt 0.0546875 0.765625
vt 0.0546875 0.78125
vt 0.046875 0.78125
vt 0.046875 0.765625
vt 0.25 0.703125
vt 0.25 0.71875
vt 0.2421875 0.71875
vt 0.2421875 0.703125
vt 0.109375 0.7578125
vt 0.109375 0.75
vt 0.125 0.75
vt 0.125 0.7578125
vt 0.34375 0.8125
vt 0.34375 0.8203125
vt 0.359375 0.8203125
vt 0.359375 0.8125
vt 0.390625 0.5859375
vt 0.390625 0.6015625
vt 0.375 0.6015625
vt 0.375 0.5859375
vt 0.4140625 0.703125
vt 0.4140625 0.71875
vt 0.3984375 0.71875
vt 0.3984375 0.703125
vt 0.0546875 0.765625
vt 0.0546875 0.78125
vt 0.046875 0.78125
vt 0.046875 0.765625
vt 0.25 0.703125
vt 0.25 0.71875
vt 0.2421875 0.71875
vt 0.2421875 0.703125
vt 0.125 0.75
vt 0.125 0.7578125
vt 0.109375 0.7578125
vt 0.109375 0.75
vt 0.359375 0.8125
vt 0.359375 0.8203125
vt 0.34375 0.8203125
vt 0.34375 0.8125
vt 0.390625 0.5859375
vt 0.390625 0.6015625
vt 0.375 0.6015625
vt 0.375 0.5859375
vt 0.4140625 0.703125
vt 0.4140625 0.71875
vt 0.3984375 0.71875
vt 0.3984375 0.703125
vt 0.0546875 0.765625
vt 0.0546875 0.78125
vt 0.046875 0.78125
vt 0.046875 0.765625
vt 0.25 0.703125
vt 0.25 0.71875
vt 0.2421875 0.71875
vt 0.2421875 0.703125
vt 0.109375 0.7578125
vt 0.109375 0.75
vt 0.125 0.75
vt 0.125 0.7578125
vt 0.34375 0.8125
vt 0.34375 0.8203125
vt 0.359375 0.8203125
vt 0.359375 0.8125
vt 0.390625 0.5859375
vt 0.390625 0.6015625
vt 0.375 0.6015625
vt 0.375 0.5859375
vt 0.4140625 0.703125
vt 0.4140625 0.71875
vt 0.3984375 0.71875
vt 0.3984375 0.703125
vt 0.119140625 0.4814453125
vt 0.119140625 0.5078125
vt 0.1171875 0.5078125
vt 0.1171875 0.4814453125
vt 0.166015625 0.4814453125
vt 0.166015625 0.5078125
vt 0.1640625 0.5078125
vt 0.1640625 0.4814453125
vt 0.484375 0.5
vt 0.484375 0.498046875
vt 0.4921875 0.498046875
vt 0.4921875 0.5
vt 0.5 0.505859375
vt 0.5 0.5078125
vt 0.5078125 0.5078125
vt 0.5078125 0.505859375
vt 0.2578125 0.5517578125
vt 0.2578125 0.578125
vt 0.25 0.578125
vt 0.25 0.5517578125
vt 0.203125 0.5517578125
vt 0.203125 0.578125
vt 0.1953125 0.578125
vt 0.1953125 0.5517578125
vt 0.509765625 0.9921875
vt 0.509765625 1
vt 0.5078125 1
vt 0.5078125 0.9921875
vt 0.509765625 0.9765625
vt 0.509765625 0.984375
vt 0.5078125 0.984375
vt 0.5078125 0.9765625
vt 0.5 0.8359375
vt 0.5 0.833984375
vt 0.5107421875 0.833984375
vt 0.5107421875 0.8359375
vt 0.5 0.818359375
vt 0.5 0.8203125
vt 0.5107421875 0.8203125
vt 0.5107421875 0.818359375
vt 0.4951171875 0.953125
vt 0.4951171875 0.9609375
vt 0.484375 0.9609375
vt 0.484375 0.953125
vt 0.4951171875 0.96875
vt 0.4951171875 0.9765625
vt 0.484375 0.9765625
vt 0.484375 0.96875
vt 0.001953125 0.482421875
vt 0.001953125 0.484375
vt 0 0.484375
vt 0 0.482421875
vt 0.017578125 0.482421875
vt 0.017578125 0.484375
vt 0.015625 0.484375
vt 0.015625 0.482421875
vt 0.03125 0.5
vt 0.03125 0.498046875
vt 0.0478515625 0.498046875
vt 0.0478515625 0.5
vt 0.5 0.943359375
vt 0.5 0.9453125
vt 0.5166015625 0.9453125
vt 0.5166015625 0.943359375
vt 0.0166015625 0.498046875
vt 0.0166015625 0.5
vt 0 0.5
vt 0 0.498046875
vt 0.5087890625 0.552734375
vt 0.5087890625 0.5546875
vt 0.4921875 0.5546875
vt 0.4921875 0.552734375
vt 0.4931640625 0.890625
vt 0.4931640625 0.8984375
vt 0.484375 0.8984375
vt 0.484375 0.890625
vt 0.4931640625 0.875
vt 0.4931640625 0.8828125
vt 0.484375 0.8828125
vt 0.484375 0.875
vt 0.078125 0.6015625
vt 0.078125 0.5927734375
vt 0.109375 0.5927734375
vt 0.109375 0.6015625
vt 0.3984375 0.8115234375
vt 0.3984375 0.8203125
vt 0.4296875 0.8203125
vt 0.4296875 0.8115234375
vt 0.1484375 0.5859375
vt 0.1484375 0.59375
vt 0.1171875 0.59375
vt 0.1171875 0.5859375
vt 0.4296875 0.59375
vt 0.4296875 0.6015625
vt 0.3984375 0.6015625
vt 0.3984375 0.59375
vt 0.4931640625 0.859375
vt 0.4931640625 0.8671875
vt 0.484375 0.8671875
vt 0.484375 0.859375
vt 0.1494140625 0.5078125
vt 0.1494140625 0.515625
vt 0.140625 0.515625
vt 0.140625 0.5078125
vt 0.484375 0.8515625
vt 0.484375 0.8427734375
vt 0.4921875 0.8427734375
vt 0.4921875 0.8515625
vt 0.484375 0.8193359375
vt 0.484375 0.828125
vt 0.4921875 0.828125
vt 0.4921875 0.8193359375
vt 0.4453125 0.90625
vt 0.4453125 0.9140625
vt 0.4375 0.9140625
vt 0.4375 0.90625
vt 0.0390625 0.703125
vt 0.0390625 0.7109375
vt 0.03125 0.7109375
vt 0.03125 0.703125
vt 0.4931640625 0.7734375
vt 0.4931640625 0.78125
vt 0.484375 0.78125
vt 0.484375 0.7734375
vt 0.4931640625 0.71875
vt 0.4931640625 0.7265625
vt 0.484375 0.7265625
vt 0.484375 0.71875
vt 0.1953125 0.515625
vt 0.1953125 0.5068359375
vt 0.203125 0.5068359375
vt 0.203125 0.515625
vt 0.2421875 0.5068359375
vt 0.2421875 0.515625
vt 0.25 0.515625
vt 0.25 0.5068359375
vt 0.4921875 0.53125
vt 0.4921875 0.5390625
vt 0.484375 0.5390625
vt 0.484375 0.53125
vt 0.3828125 0.5078125
vt 0.3828125 0.515625
vt 0.375 0.515625
vt 0.375 0.5078125
vt 0.423828125 0.6328125
vt 0.423828125 0.65625
vt 0.4140625 0.65625
vt 0.4140625 0.6328125
vt 0.408203125 0.5625
vt 0.408203125 0.5859375
vt 0.3984375 0.5859375
vt 0.3984375 0.5625
vt 0.3359375 0.7578125
vt 0.3359375 0.748046875
vt 0.3779296875 0.748046875
vt 0.3779296875 0.7578125
vt 0.3359375 0.724609375
vt 0.3359375 0.734375
vt 0.3779296875 0.734375
vt 0.3779296875 0.724609375
vt 0.2763671875 0.7578125
vt 0.2763671875 0.78125
vt 0.234375 0.78125
vt 0.234375 0.7578125
vt 0.2216796875 0.7578125
vt 0.2216796875 0.78125
vt 0.1796875 0.78125
vt 0.1796875 0.7578125
vt 0.203125 0.5234375
vt 0.203125 0.5390625
vt 0.1953125 0.5390625
vt 0.1953125 0.5234375
vt 0.25 0.5234375
vt 0.25 0.5390625
vt 0.2421875 0.5390625
vt 0.2421875 0.5234375
vt 0.4296875 1
vt 0.4296875 0.9921875
vt 0.44140625 0.9921875
vt 0.44140625 1
vt 0.46875 0.75
vt 0.46875 0.7578125
vt 0.48046875 0.7578125
vt 0.48046875 0.75
vt 0.09765625 0.5390625
vt 0.09765625 0.5546875
vt 0.0859375 0.5546875
vt 0.0859375 0.5390625
vt 0.44921875 0.5625
vt 0.44921875 0.578125
vt 0.4375 0.578125
vt 0.4375 0.5625
vn -0.07695569116880015 0.19364708562531463 -0.9780483770374319
vn -0.001345648447177633 0.2559834377372134 -0.9666802309111814
vn -0.04629085153572798 -0.02724099609923853 0.998556500752771
vn 0.04629085153572865 0.027240996099238607 -0.9985565007527709
vn 0.06047147481965951 0.9977183535676148 0.030021453786638008
vn -0.060471474819657194 -0.9977183535676151 -0.03002145378663873
vn -0.9970959621807889 0.06177390295139892 -0.044537928969792764
vn 0.9970959621807887 -0.061773902951399395 0.04453792896979248
vn -0.046290814800502365 -0.027240962439435544 0.9985565033739847
vn 0.046290814800503066 0.027240962439435107 -0.9985565033739848
vn -0.14815780297553555 0.9887593423017293 0.02010543281091917
vn 0.14815780297553668 -0.988759342301729 -0.020105432810919477
vn -0.9878797628672064 -0.14701324082008926 -0.04980643674272172
vn 0.9878797628672065 0.14701324082008893 0.04980643674272166
vn 0.05769294159345577 -0.09385097056259446 0.9939132355566824
vn -0.05769294159345576 0.09385097056259445 -0.9939132355566823
vn -0.12691490195667807 0.98680442774276 0.10054665110589632
vn 0.12691490195667815 -0.98680442774276 -0.10054665110589622
vn 0.9902343824325738 0.13194323291379156 -0.04502056348643551
vn -0.9902343824325739 -0.13194323291379073 0.04502056348643618
vn 0.057692902711894915 -0.09385093972690643 0.9939132407252921
vn -0.057692902711895436 0.09385093972690657 -0.9939132407252921
vn 0.08173972063159526 0.9926729324429712 0.08898914128218786
vn -0.08173972063159601 -0.9926729324429712 -0.0889891412821871
vn 0.9949824857994963 -0.07610814875852101 -0.06494153251045343
vn -0.9949824857994961 0.07610814875852175 0.06494153251045338
vn 1 -1.821459649775647e-16 -3.3306690738754686e-16
vn -1 1.4051260155412135e-16 -4.857225732735059e-16
vn -1.43982048506075e-16 1 -1.6930901125533637e-15
vn 1.7173762412170385e-16 -1 -1.6653345369377343e-16
vn -6.938893903907228e-17 -5.551115123125783e-17 1
vn 8.326672684688674e-17 -1.1102230246251565e-16 -1
vn 1 6.591949208711866e-17 -1.3045120539345587e-15
vn -1 1.023486850826316e-16 4.440892098500625e-16
vn -1.4051260155412135e-16 1 1.6930901125533633e-15
vn 1.7173762412170385e-16 -1 -1.6653345369377343e-16
vn -1.1102230246251565e-16 1.3877787807814457e-16 1
vn 8.326672684688674e-17 -2.7755575615628914e-17 -1
vn 1 8.326672684688674e-17 -5.551115123125783e-17
vn -1 -5.204170427930421e-18 9.71445146547012e-17
vn 3.5561831257524545e-16 1 4.718447854656915e-16
vn 1.2143064331837647e-16 -1 -4.718447854656914e-16
vn 2.7755575615628907e-17 0 1
vn -8.326672684688672e-17 8.326672684688672e-17 -1
vn 1 1.1275702593849244e-16 -1.0963452368173419e-15
vn -1 -1.0755285551056202e-16 4.163336342344336e-17
vn 3.035766082959412e-16 0.9993908270190958 0.0348994967024998
vn 1.249000902703301e-16 -0.9993908270190958 -0.03489949670250225
vn 5.5511151231257815e-17 -0.03489949670250097 0.9993908270190958
vn -5.551115123125783e-17 0.03489949670250089 -0.9993908270190958
vn 1 4.3021142204224806e-16 6.938893903907227e-17
vn -1 -2.931682674400804e-16 -4.163336342344337e-17
vn -1.3834419720915034e-16 0.9781476007338056 0.20791169081775945
vn 1.3856103764364744e-16 -0.9781476007338056 -0.20791169081775945
vn 8.326672684688674e-17 -0.2079116908177592 0.9781476007338057
vn -8.326672684688674e-17 0.20791169081775945 -0.9781476007338057
vn 1 -4.3368086899420177e-16 1.9845236565174673e-15
vn -1 -1.9255430583342554e-16 -2.6367796834847463e-16
vn -1.8388068845354155e-16 0.9975640502598244 -0.06975647374412416
vn 1.3877787807814454e-16 -0.9975640502598241 0.06975647374412795
vn 4.163336342344336e-17 0.06975647374412548 0.9975640502598242
vn -2.7755575615628914e-17 -0.0697564737441248 -0.9975640502598244
vn 0.9574818564260024 0.28128275914722306 0.06409761322811913
vn -0.9574818564260026 -0.28128275914722295 -0.06409761322811748
vn -0.27505634437783016 0.9570859180594438 -0.09127186242110058
vn 0.2750563443778317 -0.9570859180594437 0.0912718624210968
vn -0.08702012429616562 0.06976069709254266 0.9937610090502859
vn 0.08702012429616447 -0.06976069709254307 -0.9937610090502861
vn 0.9574817175661281 0.28128323424922164 0.06409760258320973
vn -0.957481717566128 -0.2812832342492217 -0.06409760258320979
vn 0.0027991353978152477 0.21311175450296627 -0.9770238200441647
vn -0.0027991353978148448 -0.21311175450296616 0.9770238200441647
vn -0.2884803725864933 0.9356618631872122 0.20326325887723265
vn 0.2884803725864949 -0.9356618631872121 -0.2032632588772303
vn 0.9579455165477693 0.27569901139932873 0.07956407756934403
vn -0.9579455165477693 -0.2756990113993294 -0.0795640775693422
vn -0.1318030867310535 0.17646028545825762 0.9754433422727107
vn 0.1318030867310539 -0.17646028545825548 -0.975443342272711
vn 0.25488886530053484 -0.944908367393063 0.20537732001460657
vn -0.25488886530053384 0.9449083673930637 -0.20537732001460396
vn 0.9579455165477694 0.27569901139932823 0.07956407756934303
vn -0.9579455165477692 -0.27569901139932945 -0.07956407756934278
vn -0.13180308673105331 0.17646028545825562 0.9754433422727111
vn 0.131803086731054 -0.1764602854582557 -0.975443342272711
vn 0.2548888653005335 -0.9449083673930633 0.20537732001460704
vn -0.25488886530053334 0.9449083673930633 -0.20537732001460696
vn 0.9579455165477695 0.2756990113993279 0.07956407756934274
vn -0.9579455165477692 -0.2756990113993296 -0.07956407756934228
vn -0.13180308673105368 0.17646028545825526 0.9754433422727112
vn 0.13180308673105343 -0.17646028545825673 -0.975443342272711
vn 0.25488886530053184 -0.9449083673930638 0.20537732001460648
vn -0.2548888653005349 0.9449083673930628 -0.20537732001460782
vn 0.9579455504865693 0.27569868643175593 0.07956479499620457
vn -0.9579455504865694 -0.2756986864317564 -0.07956479499620267
vn -0.28612585428506804 0.9387411480584381 0.1920860548076449
vn 0.2861258542850694 -0.9387411480584388 -0.19208605480763993
vn -0.021732874007444915 -0.20677352645280517 0.9781474280217926
vn 0.021732874007445294 0.20677352645280495 -0.9781474280217926
vn 0.9574818564260025 -0.28128275914722317 -0.06409761322811906
vn -0.9574818564260027 0.28128275914722256 0.06409761322811677
vn 0.2750563443778321 0.9570859180594434 -0.09127186242109797
vn -0.2750563443778303 -0.9570859180594441 0.09127186242109792
vn 0.08702012429616593 0.06976069709254279 0.993761009050286
vn -0.08702012429616551 -0.0697606970925429 -0.993761009050286
vn 0.9574817175661279 -0.28128323424922236 -0.06409760258320833
vn -0.9574817175661279 0.28128323424922214 0.06409760258320936
vn -0.0027991353978147615 0.21311175450296715 -0.9770238200441644
vn 0.002799135397814567 -0.21311175450296635 0.9770238200441647
vn 0.28848037258649284 0.9356618631872126 0.20326325887723157
vn -0.2884803725864948 -0.9356618631872118 -0.2032632588772314
vn 0.9579455165477702 -0.2756990113993254 -0.07956407756934268
vn -0.9579455165477687 0.2756990113993312 0.07956407756934127
vn 0.13180308673105245 0.17646028545825504 0.9754433422727115
vn -0.13180308673105318 -0.17646028545825498 -0.9754433422727113
vn -0.2548888653005365 -0.9449083673930633 0.20537732001460351
vn 0.25488886530053306 0.9449083673930635 -0.2053773200146064
vn 0.95794551654777 -0.27569901139932596 -0.07956407756934251
vn -0.9579455165477699 0.2756990113993263 0.07956407756934361
vn 0.13180308673105404 0.1764602854582558 0.9754433422727111
vn -0.13180308673105384 -0.1764602854582569 -0.9754433422727109
vn -0.2548888653005345 -0.9449083673930633 0.20537732001460643
vn 0.2548888653005342 0.944908367393063 -0.2053773200146077
vn 0.9579455165477702 -0.2756990113993257 -0.07956407756934364
vn -0.9579455165477694 0.27569901139932873 0.079564077569343
vn 0.13180308673105268 0.176460285458255 0.9754433422727112
vn -0.13180308673105323 -0.17646028545825518 -0.9754433422727113
vn -0.2548888653005349 -0.944908367393063 0.2053773200146066
vn 0.2548888653005327 0.9449083673930639 -0.20537732001460554
vn 0.9579455504865694 -0.27569868643175566 -0.07956479499620522
vn -0.9579455504865694 0.2756986864317566 0.07956479499620309
vn 0.28612585428506765 0.9387411480584379 0.19208605480764657
vn -0.2861258542850707 -0.9387411480584369 -0.19208605480764696
vn 0.021732874007444614 -0.20677352645280495 0.9781474280217927
vn -0.02173287400744502 0.20677352645280486 -0.9781474280217924
vn 0.9961946980917455 4.85722573273506e-17 0.08715574274765829
vn -0.9961946980917455 -8.326672684688674e-17 -0.08715574274765844
vn -3.727920749874158e-15 1 5.5511151231257815e-17
vn 9.731798700229888e-16 -1 8.326672684688674e-17
vn -0.08715574274765851 2.498001805406602e-16 0.9961946980917457
vn 0.08715574274765987 -3.608224830031759e-16 -0.9961946980917454
vn 0.9961946980917457 1.8409752888803865e-16 -0.08715574274765849
vn -0.9961946980917455 1.262011328773127e-16 0.08715574274765822
vn -3.533631720564756e-15 1 1.1379786002407855e-15
vn -1.7919693506840413e-15 -1 2.7755575615628907e-17
vn 0.08715574274765953 2.220446049250313e-16 0.9961946980917455
vn -0.08715574274765792 -1.942890293094024e-16 -0.9961946980917455
vn 0.8703556959398996 0 -0.4924235601034672
vn -0.8703556959398996 6.938893903907227e-17 0.49242356010346716
vn 6.643990912991171e-16 1 -1.942890293094024e-16
vn -3.278627369596165e-16 -1 9.714451465470118e-16
vn 0.4924235601034659 1.387778780781446e-16 0.8703556959399006
vn -0.49242356010346744 -2.498001805406602e-16 -0.8703556959398996
vn 0.8703556959398995 -3.608224830031758e-16 0.4924235601034676
vn -0.8703556959398998 5.551115123125783e-17 -0.49242356010346716
vn -1.3634926521177704e-15 1 -8.326672684688674e-17
vn -3.851086116668511e-16 -1 1.3045120539345587e-15
vn -0.49242356010346683 3.608224830031759e-16 0.8703556959398998
vn 0.49242356010346544 -5.551115123125783e-17 -0.8703556959399007
vn 1 -5.0306980803327406e-17 4.163336342344337e-17
vn -1 1.1275702593849246e-16 -5.551115123125783e-17
vn -9.19403442267708e-16 1 -1.1102230246251568e-16
vn -2.5673907444456745e-15 -1 -2.220446049250313e-16
vn 4.440892098500625e-16 -1.9428902930940235e-16 1
vn 5.134781488891349e-16 -2.7755575615628914e-17 -1
vn 1 -2.463307335887066e-16 1.5265566588595902e-16
vn -1 -1.4918621893400539e-16 -4.163336342344336e-17
vn 6.401129626354418e-16 1 2.220446049250313e-16
vn 1.2854300956988139e-15 -1 1.3877787807814454e-16
vn 1.3322676295501875e-15 2.7755575615628907e-17 1
vn 5.5511151231257815e-17 8.326672684688672e-17 -1
vn 1 -1.2576745200831851e-15 -3.497202527569243e-15
vn -1 3.4867941867133813e-16 -6.522560269672794e-16
vn 5.360295540768333e-16 1 3.996802888650563e-15
vn -5.637851296924622e-16 -1 -3.996802888650563e-15
vn -2.7755575615628914e-17 -1.942890293094024e-16 1
vn 2.7755575615628907e-17 -6.661338147750937e-16 -1
vn 1 -1.8283985436795547e-15 9.2148511043888e-15
vn -1 5.030698080332741e-16 -9.506284648352903e-15
vn -1.3335686721571705e-16 0.9781476007338121 0.20791169081772948
vn 9.454242944073596e-17 -0.9781476007338124 -0.20791169081772742
vn 1.3877787807814457e-17 -0.20791169081775837 0.9781476007338059
vn -1.3877787807814457e-17 0.2079116908177592 -0.9781476007338057
vn 1 -7.598088824778415e-16 -1.3877787807814457e-17
vn -1 7.650130529057717e-16 1.3877787807814454e-17
vn -6.678685382510706e-17 0.9781476007338124 0.20791169081772742
vn 9.454242944073596e-17 -0.9781476007338124 -0.20791169081772742
vn -1.8041124150158794e-16 -0.20791169081776004 0.9781476007338056
vn 1.6653345369377348e-16 0.20791169081775915 -0.9781476007338058
vn 1 -1.2576745200831851e-15 -3.497202527569243e-15
vn -1 2.081668171172168e-16 -9.714451465470118e-16
vn 5.082739784612044e-16 1 3.996802888650563e-15
vn -2.2898349882893854e-16 -1 1.2961853812498703e-14
vn 1.942890293094024e-16 1.6653345369377348e-16 1
vn -1.6653345369377348e-16 2.220446049250313e-16 -1
vn 1 -5.5511151231257815e-17 -3.7470027081099023e-16
vn -1 5.707240235963695e-16 1.27675647831893e-15
vn -1.5959455978986625e-16 1 -1.2934098236883074e-14
vn 1.5959455978986625e-16 -1 1.2934098236883074e-14
vn -1.249000902703301e-16 -2.7755575615628914e-17 1
vn 5.551115123125783e-17 -1.942890293094024e-16 -1
vn 1 -2.42861286636753e-17 -1.5681900222830336e-15
vn -1 8.326672684688672e-17 1.4294121442048887e-15
vn 2.321060010856968e-15 1 5.051514762044462e-15
vn -2.5326962749261384e-15 -1 -5.662137425588298e-15
vn 9.992007221626409e-16 5.551115123125783e-16 1
vn -9.992007221626409e-16 1.942890293094024e-16 -1
vn 1 -3.642919299551295e-16 -7.216449660063518e-16
vn -1 -2.9663771439203396e-16 8.743006318923106e-16
vn 2.220446049250313e-15 1 5.218048215738236e-15
vn -5.637851296924623e-16 -1 4.163336342344337e-16
vn 1.0269562977782698e-15 8.604228440844963e-16 1
vn -1.0269562977782696e-15 -2.4980018054066017e-16 -1
vn 1 -4.2847669856627125e-16 -3.330669073875469e-15
vn -1 3.4867941867133813e-16 -6.522560269672794e-16
vn -1.3530843112619093e-16 1 3.969047313034934e-15
vn 1.6306400674181984e-16 -1 -3.969047313034934e-15
vn -1.804112415015879e-16 -2.2204460492503126e-16 1
vn 1.9428902930940235e-16 -6.383782391594649e-16 -1
vn 1 5.221517662690189e-16 2.3869795029440866e-15
vn -1 3.0531133177191805e-16 -2.5118795932144167e-15
vn -7.63278329429795e-17 0.9975640502598236 -0.06975647374413389
vn 1.249000902703301e-16 -0.9975640502598216 0.06975647374416485
vn -1.9428902930940235e-16 0.0697564737441269 0.9975640502598241
vn 1.942890293094024e-16 -0.069756473744126 -0.9975640502598242
vn 1 3.2786273695961654e-16 1.2170819907453279e-14
vn -1 2.2551405187698492e-17 -3.552713678800501e-15
vn -9.020562075079397e-17 0.9975640502598263 -0.06975647374409669
vn 1.8041124150158794e-16 -0.9975640502598215 0.06975647374416485
vn -1.942890293094024e-16 0.06975647374412705 0.9975640502598242
vn 1.8041124150158794e-16 -0.06975647374412422 -0.9975640502598244
vn 0.9255062706317589 -0.0968159275681674 0.366148629917427
vn -0.925506270631759 0.09681592756816712 -0.36614862991742697
vn 0.1281282657808307 0.9898086474327009 -0.06214490305281892
vn -0.12812826578082995 -0.9898086474327008 0.06214490305282254
vn -0.3564004637052113 0.10442948643253608 0.9284789668237765
vn 0.35640046370521183 -0.10442948643253577 -0.9284789668237761
vn 1 2.1163626406917042e-16 -4.163336342344336e-16
vn -1 -4.683753385137378e-17 6.10622663543836e-16
vn 4.683753385137379e-16 0.9981347984218671 -0.06104853953485659
vn 2.220446049250313e-16 -0.998134798421867 0.06104853953485681
vn 1.2490009027033009e-16 0.061048539534856686 0.9981347984218669
vn -3.191891195797325e-16 -0.06104853953485656 -0.9981347984218671
vn 0.9996573249755574 -0.0015980644636751254 -0.02612812302257822
vn -0.9996573249755574 0.0015980644636750564 0.026128123022578865
vn 1.8735013540549517e-16 0.998134798421867 -0.06104853953485623
vn -3.608224830031759e-16 -0.998134798421867 0.061048539534857976
vn 0.02617694830787367 0.06102761972507978 0.9977927625554207
vn -0.026176948307873343 -0.061027619725079085 -0.9977927625554207
vn 0.9957122476785095 -0.09234032942198185 -0.005512112594132811
vn -0.9957122476785096 0.09234032942198209 0.005512112594132132
vn -0.03969254699399648 -0.480310899350607 0.8761997156345924
vn 0.0396925469939986 0.4803108993506058 -0.8761997156345929
vn -0.08355609813855126 -0.8722239984816179 -0.4819166680418925
vn 0.08355609813854785 0.8722239984815993 0.4819166680419266
vn 0.9998476951563914 -0.002277996157331111 0.01730309868085192
vn -0.9998476951563913 0.0022779961573407485 -0.017303098680850764
vn -5.394122648549882e-15 0.9914448613738102 0.1305261922200543
vn -1.4988010832439617e-15 -0.9914448613738105 -0.1305261922200521
vn -0.01745240643728363 -0.13050631244876257 0.9912938595192518
vn 0.01745240643728234 0.13050631244876226 -0.9912938595192519
vn 1 -7.806255641895631e-17 1.3877787807814454e-17
vn -1 9.887923813067798e-17 -1.2490009027033009e-16
vn 1.3010426069826053e-16 0.9914448613738107 0.1305261922200499
vn 1.1969591984239966e-16 -0.9914448613738105 -0.13052619222005105
vn -1.6653345369377348e-16 -0.13052619222005168 0.9914448613738105
vn 1.970645868709653e-15 0.13052619222005118 -0.9914448613738106
vn 0.9631687088382688 0.26454441437273796 0.04819015603842307
vn -0.9631687088382687 -0.26454441437273846 -0.04819015603842338
vn -0.26443113300528176 0.9643641760731525 -0.008826766355398197
vn 0.26443113300528437 -0.9643641760731518 0.008826766355400362
vn -0.04880793185912455 -0.004241312407196246 0.998799177541061
vn 0.048807931859123396 0.004241312407195552 -0.998799177541061
vn 0.9774950608112496 0.21095722094831246 -0.0006760320823523054
vn -0.9774950608112497 -0.21095722094831207 0.0006760320823524026
vn -0.21089907554572396 0.9771396702102926 -0.026826196809831282
vn 0.21089907554572432 -0.9771396702102927 0.026826196809825925
vn -0.004998602161612881 0.026365049423165338 0.9996398842309885
vn 0.004998602161613574 -0.02636504942316644 -0.9996398842309884
vn 0.9418378940844596 0.10618411889866392 0.3188515550538603
vn -0.9418378940844587 -0.10618411889866367 -0.3188515550538626
vn -0.08525155995353775 0.9932269809353959 -0.07894514467303863
vn 0.08525155995353668 -0.9932269809353961 0.07894514467303981
vn -0.32507468802113776 0.0471709363450981 0.9445111698504611
vn 0.32507468802113976 -0.047170936345098585 -0.9445111698504605
vn 0.3904483620877369 -0.38268343236509084 -0.8373192145987554
vn -0.3904483620877215 0.38268343236509017 0.8373192145987629
vn 0.16172900698309564 0.9238795325112849 -0.34682897472240076
vn -0.16172900698309953 -0.9238795325112865 0.3468289747223942
vn 0.9063077870366497 1.3877787807814454e-17 0.4226182617406998
vn -0.9063077870366497 -6.800116025829084e-16 -0.4226182617407003
vn 0.40415185365946654 -0.2923717047227361 -0.8667064471094803
vn -0.4041518536594662 0.29237170472273694 0.8667064471094803
vn 0.12356162163208978 0.9563047559630359 -0.2649787526993944
vn -0.12356162163208709 -0.9563047559630352 0.26497875269939786
vn 0.9063077870366493 0 0.4226182617407008
vn -0.9063077870366498 3.1918911957973246e-16 -0.42261826174069966
vn 0.40415185365946166 -0.2923717047227268 -0.8667064471094859
vn -0.4041518536594694 0.2923717047227236 0.8667064471094832
vn 0.12356162163208657 0.9563047559630357 -0.26497875269939686
vn -0.12356162163208648 -0.9563047559630358 0.2649787526993966
vn 0.9063077870366503 2.5673907444456745e-15 0.42261826174069883
vn -0.9063077870366502 -1.8457457784393227e-15 -0.42261826174069916
vn 1 3.7990444123892066e-16 2.7755575615628907e-17
vn -1 6.071532165918824e-17 3.608224830031758e-16
vn -2.411265631607762e-16 0.9914448613738104 0.130526192220052
vn 1.1015494072452725e-16 -0.9914448613738106 -0.1305261922200504
vn 5.5511151231257815e-17 -0.1305261922200517 0.9914448613738104
vn -6.938893903907227e-17 0.130526192220051 -0.9914448613738105
vn 0.707106781186546 -0.7010573846499795 -0.0922959556412565
vn -0.707106781186547 0.7010573846499786 0.09229595564125755
vn 0.7071067811865483 0.7010573846499772 0.09229595564125645
vn -0.7071067811865475 -0.701057384649978 -0.09229595564125771
vn -7.216449660063518e-16 -0.13052619222005174 0.9914448613738105
vn 4.163336342344336e-17 0.13052619222005252 -0.9914448613738103
vn 0.7071067811865461 -0.7010573846499795 -0.0922959556412568
vn -0.7071067811865471 0.7010573846499784 0.0922959556412574
vn 0.7071067811865481 0.7010573846499777 0.092295955641256
vn -0.7071067811865472 -0.7010573846499781 -0.09229595564125755
vn 0 -0.13052619222005116 0.9914448613738105
vn 4.163336342344337e-17 0.13052619222005254 -0.9914448613738104
vn 1 -9.8879238130678e-17 1.3877787807814457e-16
vn -1 1.4051260155412137e-16 -4.996003610813204e-16
vn -5.204170427930421e-18 0.9914448613738106 0.13052619222005105
vn -2.42861286636753e-17 -0.9914448613738106 -0.13052619222005107
vn -1.3877787807814454e-17 -0.1305261922200513 0.9914448613738104
vn 0 0.13052619222005163 -0.9914448613738105
vn 0.9576621969425486 0.18490433744454496 -0.22066604301832476
vn -0.9576621969425487 -0.1849043374445449 0.22066604301832496
vn -0.1260786200725188 0.9584347478254298 0.25594338382035614
vn 0.1260786200725166 -0.9584347478254304 -0.25594338382035553
vn 0.25881904510252024 -0.21728603304169514 0.9411692099390114
vn -0.2588190451025208 0.2172860330416946 -0.9411692099390114
usemtl m_4a7514c8-95f6-3e91-04ca-a7861a3305a7
f 2/1/1 1/2/1 3/3/1 4/4/1
f 6/5/2 5/6/2 7/7/2 8/8/2
f 10/9/3 9/10/3 11/11/3 12/12/3
f 15/13/4 13/14/4 14/15/4 16/16/4
f 13/17/5 9/18/5 10/19/5 14/20/5
f 12/21/6 11/22/6 15/23/6 16/24/6
f 11/25/7 9/26/7 13/27/7 15/28/7
f 14/29/8 10/30/8 12/31/8 16/32/8
f 18/33/9 17/34/9 19/35/9 20/36/9
f 23/37/10 21/38/10 22/39/10 24/40/10
f 21/41/11 17/42/11 18/43/11 22/44/11
f 20/45/12 19/46/12 23/47/12 24/48/12
f 19/49/13 17/50/13 21/51/13 23/52/13
f 22/53/14 18/54/14 20/55/14 24/56/14
f 27/57/15 25/58/15 26/59/15 28/60/15
f 30/61/16 29/62/16 31/63/16 32/64/16
f 26/65/17 25/66/17 29/67/17 30/68/17
f 31/69/18 27/70/18 28/71/18 32/72/18
f 29/73/19 25/74/19 27/75/19 31/76/19
f 28/77/20 26/78/20 30/79/20 32/80/20
f 35/81/21 33/82/21 34/83/21 36/84/21
f 38/85/22 37/86/22 39/87/22 40/88/22
f 34/89/23 33/90/23 37/91/23 38/92/23
f 39/93/24 35/94/24 36/95/24 40/96/24
f 37/97/25 33/98/25 35/99/25 39/100/25
f 36/101/26 34/102/26 38/103/26 40/104/26
f 44/105/27 42/106/27 41/107/27 43/108/27
f 47/109/28 45/110/28 46/111/28 48/112/28
f 41/113/29 42/114/29 46/115/29 45/116/29
f 44/117/30 43/118/30 47/119/30 48/120/30
f 43/121/31 41/122/31 45/123/31 47/124/31
f 48/125/32 46/126/32 42/127/32 44/128/32
f 52/129/33 50/130/33 49/131/33 51/132/33
f 55/133/34 53/134/34 54/135/34 56/136/34
f 49/137/35 50/138/35 54/139/35 53/140/35
f 52/141/36 51/142/36 55/143/36 56/144/36
f 51/145/37 49/146/37 53/147/37 55/148/37
f 56/149/38 54/150/38 50/151/38 52/152/38
f 60/153/39 58/154/39 57/155/39 59/156/39
f 63/157/40 61/158/40 62/159/40 64/160/40
f 57/161/41 58/162/41 62/163/41 61/164/41
f 60/165/42 59/166/42 63/167/42 64/168/42
f 59/169/43 57/170/43 61/171/43 63/172/43
f 64/173/44 62/174/44 58/175/44 60/176/44
f 68/177/45 66/178/45 65/179/45 67/180/45
f 71/181/46 69/182/46 70/183/46 72/184/46
f 65/185/47 66/186/47 70/187/47 69/188/47
f 68/189/48 67/190/48 71/191/48 72/192/48
f 67/193/49 65/194/49 69/195/49 71/196/49
f 72/197/50 70/198/50 66/199/50 68/200/50
f 76/201/51 74/202/51 73/203/51 75/204/51
f 79/205/52 77/206/52 78/207/52 80/208/52
f 73/209/53 74/210/53 78/211/53 77/212/53
f 76/213/54 75/214/54 79/215/54 80/216/54
f 75/217/55 73/218/55 77/219/55 79/220/55
f 80/221/56 78/222/56 74/223/56 76/224/56
f 84/225/57 82/226/57 81/227/57 83/228/57
f 87/229/58 85/230/58 86/231/58 88/232/58
f 81/233/59 82/234/59 86/235/59 85/236/59
f 84/237/60 83/238/60 87/239/60 88/240/60
f 83/241/61 81/242/61 85/243/61 87/244/61
f 88/245/62 86/246/62 82/247/62 84/248/62
f 92/249/63 90/250/63 89/251/63 91/252/63
f 95/253/64 93/254/64 94/255/64 96/256/64
f 89/257/65 90/258/65 94/259/65 93/260/65
f 92/261/66 91/262/66 95/263/66 96/264/66
f 91/265/67 89/266/67 93/267/67 95/268/67
f 96/269/68 94/270/68 90/271/68 92/272/68
f 100/273/69 98/274/69 97/275/69 99/276/69
f 103/277/70 101/278/70 102/279/70 104/280/70
f 97/281/71 98/282/71 102/283/71 101/284/71
f 100/285/72 99/286/72 103/287/72 104/288/72
f 99/289/73 97/290/73 101/291/73 103/292/73
f 104/293/74 102/294/74 98/295/74 100/296/74
f 108/297/75 106/298/75 105/299/75 107/300/75
f 111/301/76 109/302/76 110/303/76 112/304/76
f 105/305/77 106/306/77 110/307/77 109/308/77
f 108/309/78 107/310/78 111/311/78 112/312/78
f 107/313/79 105/314/79 109/315/79 111/316/79
f 112/317/80 110/318/80 106/319/80 108/320/80
f 116/321/81 114/322/81 113/323/81 115/324/81
f 119/325/82 117/326/82 118/327/82 120/328/82
f 113/329/83 114/330/83 118/331/83 117/332/83
f 116/333/84 115/334/84 119/335/84 120/336/84
f 115/337/85 113/338/85 117/339/85 119/340/85
f 120/341/86 118/342/86 114/343/86 116/344/86
f 124/345/87 122/346/87 121/347/87 123/348/87
f 127/349/88 125/350/88 126/351/88 128/352/88
f 121/353/89 122/354/89 126/355/89 125/356/89
f 124/357/90 123/358/90 127/359/90 128/360/90
f 123/361/91 121/362/91 125/363/91 127/364/91
f 128/365/92 126/366/92 122/367/92 124/368/92
f 132/369/93 130/370/93 129/371/93 131/372/93
f 135/373/94 133/374/94 134/375/94 136/376/94
f 129/377/95 130/378/95 134/379/95 133/380/95
f 132/381/96 131/382/96 135/383/96 136/384/96
f 131/385/97 129/386/97 133/387/97 135/388/97
f 136/389/98 134/390/98 130/391/98 132/392/98
f 140/393/99 138/394/99 137/395/99 139/396/99
f 143/397/100 141/398/100 142/399/100 144/400/100
f 137/401/101 138/402/101 142/403/101 141/404/101
f 140/405/102 139/406/102 143/407/102 144/408/102
f 139/409/103 137/410/103 141/411/103 143/412/103
f 144/413/104 142/414/104 138/415/104 140/416/104
f 148/417/105 146/418/105 145/419/105 147/420/105
f 151/421/106 149/422/106 150/423/106 152/424/106
f 145/425/107 146/426/107 150/427/107 149/428/107
f 148/429/108 147/430/108 151/431/108 152/432/108
f 147/433/109 145/434/109 149/435/109 151/436/109
f 152/437/110 150/438/110 146/439/110 148/440/110
f 156/441/111 154/442/111 153/443/111 155/444/111
f 159/445/112 157/446/112 158/447/112 160/448/112
f 153/449/113 154/450/113 158/451/113 157/452/113
f 156/453/114 155/454/114 159/455/114 160/456/114
f 155/457/115 153/458/115 157/459/115 159/460/115
f 160/461/116 158/462/116 154/463/116 156/464/116
f 164/465/117 162/466/117 161/467/117 163/468/117
f 167/469/118 165/470/118 166/471/118 168/472/118
f 161/473/119 162/474/119 166/475/119 165/476/119
f 164/477/120 163/478/120 167/479/120 168/480/120
f 163/481/121 161/482/121 165/483/121 167/484/121
f 168/485/122 166/486/122 162/487/122 164/488/122
f 172/489/123 170/490/123 169/491/123 171/492/123
f 175/493/124 173/494/124 174/495/124 176/496/124
f 169/497/125 170/498/125 174/499/125 173/500/125
f 172/501/126 171/502/126 175/503/126 176/504/126
f 171/505/127 169/506/127 173/507/127 175/508/127
f 176/509/128 174/510/128 170/511/128 172/512/128
f 180/513/129 178/514/129 177/515/129 179/516/129
f 183/517/130 181/518/130 182/519/130 184/520/130
f 177/521/131 178/522/131 182/523/131 181/524/131
f 180/525/132 179/526/132 183/527/132 184/528/132
f 179/529/133 177/530/133 181/531/133 183/532/133
f 184/533/134 182/534/134 178/535/134 180/536/134
f 188/537/135 186/538/135 185/539/135 187/540/135
f 191/541/136 189/542/136 190/543/136 192/544/136
f 185/545/137 186/546/137 190/547/137 189/548/137
f 188/549/138 187/550/138 191/551/138 192/552/138
f 187/553/139 185/554/139 189/555/139 191/556/139
f 192/557/140 190/558/140 186/559/140 188/560/140
f 196/561/141 194/562/141 193/563/141 195/564/141
f 199/565/142 197/566/142 198/567/142 200/568/142
f 193/569/143 194/570/143 198/571/143 197/572/143
f 196/573/144 195/574/144 199/575/144 200/576/144
f 195/577/145 193/578/145 197/579/145 199/580/145
f 200/581/146 198/582/146 194/583/146 196/584/146
f 204/585/147 202/586/147 201/587/147 203/588/147
f 207/589/148 205/590/148 206/591/148 208/592/148
f 201/593/149 202/594/149 206/595/149 205/596/149
f 204/597/150 203/598/150 207/599/150 208/600/150
f 203/601/151 201/602/151 205/603/151 207/604/151
f 208/605/152 206/606/152 202/607/152 204/608/152
f 212/609/153 210/610/153 209/611/153 211/612/153
f 215/613/154 213/614/154 214/615/154 216/616/154
f 209/617/155 210/618/155 214/619/155 213/620/155
f 212/621/156 211/622/156 215/623/156 216/624/156
f 211/625/157 209/626/157 213/627/157 215/628/157
f 216/629/158 214/630/158 210/631/158 212/632/158
f 220/633/159 218/634/159 217/635/159 219/636/159
f 223/637/160 221/638/160 222/639/160 224/640/160
f 217/641/161 218/642/161 222/643/161 221/644/161
f 220/645/162 219/646/162 223/647/162 224/648/162
f 219/649/163 217/650/163 221/651/163 223/652/163
f 224/653/164 222/654/164 218/655/164 220/656/164
f 228/657/165 226/658/165 225/659/165 227/660/165
f 231/661/166 229/662/166 230/663/166 232/664/166
f 225/665/167 226/666/167 230/667/167 229/668/167
f 228/669/168 227/670/168 231/671/168 232/672/168
f 227/673/169 225/674/169 229/675/169 231/676/169
f 232/677/170 230/678/170 226/679/170 228/680/170
f 236/681/171 234/682/171 233/683/171 235/684/171
f 239/685/172 237/686/172 238/687/172 240/688/172
f 233/689/173 234/690/173 238/691/173 237/692/173
f 236/693/174 235/694/174 239/695/174 240/696/174
f 235/697/175 233/698/175 237/699/175 239/700/175
f 240/701/176 238/702/176 234/703/176 236/704/176
f 244/705/177 242/706/177 241/707/177 243/708/177
f 247/709/178 245/710/178 246/711/178 248/712/178
f 241/713/179 242/714/179 246/715/179 245/716/179
f 244/717/180 243/718/180 247/719/180 248/720/180
f 243/721/181 241/722/181 245/723/181 247/724/181
f 248/725/182 246/726/182 242/727/182 244/728/182
f 252/729/183 250/730/183 249/731/183 251/732/183
f 255/733/184 253/734/184 254/735/184 256/736/184
f 249/737/185 250/738/185 254/739/185 253/740/185
f 252/741/186 251/742/186 255/743/186 256/744/186
f 251/745/187 249/746/187 253/747/187 255/748/187
f 256/749/188 254/750/188 250/751/188 252/752/188
f 260/753/189 258/754/189 257/755/189 259/756/189
f 263/757/190 261/758/190 262/759/190 264/760/190
f 257/761/191 258/762/191 262/763/191 261/764/191
f 260/765/192 259/766/192 263/767/192 264/768/192
f 259/769/193 257/770/193 261/771/193 263/772/193
f 264/773/194 262/774/194 258/775/194 260/776/194
f 268/777/195 266/778/195 265/779/195 267/780/195
f 271/781/196 269/782/196 270/783/196 272/784/196
f 265/785/197 266/786/197 270/787/197 269/788/197
f 268/789/198 267/790/198 271/791/198 272/792/198
f 267/793/199 265/794/199 269/795/199 271/796/199
f 272/797/200 270/798/200 266/799/200 268/800/200
f 276/801/201 274/802/201 273/803/201 275/804/201
f 279/805/202 277/806/202 278/807/202 280/808/202
f 273/809/203 274/810/203 278/811/203 277/812/203
f 276/813/204 275/814/204 279/815/204 280/816/204
f 275/817/205 273/818/205 277/819/205 279/820/205
f 280/821/206 278/822/206 274/823/206 276/824/206
f 284/825/207 282/826/207 281/827/207 283/828/207
f 287/829/208 285/830/208 286/831/208 288/832/208
f 281/833/209 282/834/209 286/835/209 285/836/209
f 284/837/210 283/838/210 287/839/210 288/840/210
f 283/841/211 281/842/211 285/843/211 287/844/211
f 288/845/212 286/846/212 282/847/212 284/848/212
f 292/849/213 290/850/213 289/851/213 291/852/213
f 295/853/214 293/854/214 294/855/214 296/856/214
f 289/857/215 290/858/215 294/859/215 293/860/215
f 292/861/216 291/862/216 295/863/216 296/864/216
f 291/865/217 289/866/217 293/867/217 295/868/217
f 296/869/218 294/870/218 290/871/218 292/872/218
f 300/873/219 298/874/219 297/875/219 299/876/219
f 303/877/220 301/878/220 302/879/220 304/880/220
f 297/881/221 298/882/221 302/883/221 301/884/221
f 300/885/222 299/886/222 303/887/222 304/888/222
f 299/889/223 297/890/223 301/891/223 303/892/223
f 304/893/224 302/894/224 298/895/224 300/896/224
f 308/897/225 306/898/225 305/899/225 307/900/225
f 311/901/226 309/902/226 310/903/226 312/904/226
f 305/905/227 306/906/227 310/907/227 309/908/227
f 308/909/228 307/910/228 311/911/228 312/912/228
f 307/913/229 305/914/229 309/915/229 311/916/229
f 312/917/230 310/918/230 306/919/230 308/920/230
f 316/921/231 314/922/231 313/923/231 315/924/231
f 319/925/232 317/926/232 318/927/232 320/928/232
f 313/929/233 314/930/233 318/931/233 317/932/233
f 316/933/234 315/934/234 319/935/234 320/936/234
f 315/937/235 313/938/235 317/939/235 319/940/235
f 320/941/236 318/942/236 314/943/236 316/944/236
f 324/945/237 322/946/237 321/947/237 323/948/237
f 327/949/238 325/950/238 326/951/238 328/952/238
f 321/953/239 322/954/239 326/955/239 325/956/239
f 324/957/240 323/958/240 327/959/240 328/960/240
f 323/961/241 321/962/241 325/963/241 327/964/241
f 328/965/242 326/966/242 322/967/242 324/968/242
f 332/969/243 330/970/243 329/971/243 331/972/243
f 335/973/244 333/974/244 334/975/244 336/976/244
f 329/977/245 330/978/245 334/979/245 333/980/245
f 332/981/246 331/982/246 335/983/246 336/984/246
f 331/985/247 329/986/247 333/987/247 335/988/247
f 336/989/248 334/990/248 330/991/248 332/992/248
f 340/993/249 338/994/249 337/995/249 339/996/249
f 343/997/250 341/998/250 342/999/250 344/1000/250
f 337/1001/251 338/1002/251 342/1003/251 341/1004/251
f 340/1005/252 339/1006/252 343/1007/252 344/1008/252
f 339/1009/253 337/1010/253 341/1011/253 343/1012/253
f 344/1013/254 342/1014/254 338/1015/254 340/1016/254
f 348/1017/255 346/1018/255 345/1019/255 347/1020/255
f 351/1021/256 349/1022/256 350/1023/256 352/1024/256
f 345/1025/257 346/1026/257 350/1027/257 349/1028/257
f 348/1029/258 347/1030/258 351/1031/258 352/1032/258
f 347/1033/259 345/1034/259 349/1035/259 351/1036/259
f 352/1037/260 350/1038/260 346/1039/260 348/1040/260
f 356/1041/261 354/1042/261 353/1043/261 355/1044/261
f 359/1045/262 357/1046/262 358/1047/262 360/1048/262
f 353/1049/263 354/1050/263 358/1051/263 357/1052/263
f 356/1053/264 355/1054/264 359/1055/264 360/1056/264
f 355/1057/265 353/1058/265 357/1059/265 359/1060/265
f 360/1061/266 358/1062/266 354/1063/266 356/1064/266
f 364/1065/267 362/1066/267 361/1067/267 363/1068/267
f 367/1069/268 365/1070/268 366/1071/268 368/1072/268
f 361/1073/269 362/1074/269 366/1075/269 365/1076/269
f 364/1077/270 363/1078/270 367/1079/270 368/1080/270
f 363/1081/271 361/1082/271 365/1083/271 367/1084/271
f 368/1085/272 366/1086/272 362/1087/272 364/1088/272
f 372/1089/273 370/1090/273 369/1091/273 371/1092/273
f 375/1093/274 373/1094/274 374/1095/274 376/1096/274
f 369/1097/275 370/1098/275 374/1099/275 373/1100/275
f 372/1101/276 371/1102/276 375/1103/276 376/1104/276
f 371/1105/277 369/1106/277 373/1107/277 375/1108/277
f 376/1109/278 374/1110/278 370/1111/278 372/1112/278
f 380/1113/279 378/1114/279 377/1115/279 379/1116/279
f 383/1117/280 381/1118/280 382/1119/280 384/1120/280
f 377/1121/281 378/1122/281 382/1123/281 381/1124/281
f 380/1125/282 379/1126/282 383/1127/282 384/1128/282
f 379/1129/283 377/1130/283 381/1131/283 383/1132/283
f 384/1133/284 382/1134/284 378/1135/284 380/1136/284
f 388/1137/285 386/1138/285 385/1139/285 387/1140/285
f 391/1141/286 389/1142/286 390/1143/286 392/1144/286
f 385/1145/287 386/1146/287 390/1147/287 389/1148/287
f 388/1149/288 387/1150/288 391/1151/288 392/1152/288
f 387/1153/289 385/1154/289 389/1155/289 391/1156/289
f 392/1157/290 390/1158/290 386/1159/290 388/1160/290
f 396/1161/291 394/1162/291 393/1163/291 395/1164/291
f 399/1165/292 397/1166/292 398/1167/292 400/1168/292
f 393/1169/293 394/1170/293 398/1171/293 397/1172/293
f 396/1173/294 395/1174/294 399/1175/294 400/1176/294
f 395/1177/295 393/1178/295 397/1179/295 399/1180/295
f 400/1181/296 398/1182/296 394/1183/296 396/1184/296
f 404/1185/297 402/1186/297 401/1187/297 403/1188/297
f 407/1189/298 405/1190/298 406/1191/298 408/1192/298
f 401/1193/299 402/1194/299 406/1195/299 405/1196/299
f 404/1197/300 403/1198/300 407/1199/300 408/1200/300
f 403/1201/301 401/1202/301 405/1203/301 407/1204/301
f 408/1205/302 406/1206/302 402/1207/302 404/1208/302
f 412/1209/303 410/1210/303 409/1211/303 411/1212/303
f 415/1213/304 413/1214/304 414/1215/304 416/1216/304
f 409/1217/305 410/1218/305 414/1219/305 413/1220/305
f 412/1221/306 411/1222/306 415/1223/306 416/1224/306
f 411/1225/307 409/1226/307 413/1227/307 415/1228/307
f 416/1229/308 414/1230/308 410/1231/308 412/1232/308
f 420/1233/309 418/1234/309 417/1235/309 419/1236/309
f 423/1237/310 421/1238/310 422/1239/310 424/1240/310
f 417/1241/311 418/1242/311 422/1243/311 421/1244/311
f 420/1245/312 419/1246/312 423/1247/312 424/1248/312
f 419/1249/313 417/1250/313 421/1251/313 423/1252/313
f 424/1253/314 422/1254/314 418/1255/314 420/1256/314
f 428/1257/315 426/1258/315 425/1259/315 427/1260/315
f 431/1261/316 429/1262/316 430/1263/316 432/1264/316
f 425/1265/317 426/1266/317 430/1267/317 429/1268/317
f 428/1269/318 427/1270/318 431/1271/318 432/1272/318
f 427/1273/319 425/1274/319 429/1275/319 431/1276/319
f 432/1277/320 430/1278/320 426/1279/320 428/1280/320
f 436/1281/321 434/1282/321 433/1283/321 435/1284/321
f 439/1285/322 437/1286/322 438/1287/322 440/1288/322
f 433/1289/323 434/1290/323 438/1291/323 437/1292/323
f 436/1293/324 435/1294/324 439/1295/324 440/1296/324
f 435/1297/325 433/1298/325 437/1299/325 439/1300/325
f 440/1301/326 438/1302/326 434/1303/326 436/1304/326
f 444/1305/327 442/1306/327 441/1307/327 443/1308/327
f 447/1309/328 445/1310/328 446/1311/328 448/1312/328
f 441/1313/329 442/1314/329 446/1315/329 445/1316/329
f 444/1317/330 443/1318/330 447/1319/330 448/1320/330
f 443/1321/331 441/1322/331 445/1323/331 447/1324/331
f 448/1325/332 446/1326/332 442/1327/332 444/1328/332
