# Made in Blockbench 5.1.6
mtllib osprey_kneepads_p_r.mtl

o mesh
v 0.25 0.5752172876193395 -0.13652743735108036
v 0.25 0.5779409045802038 -0.1676585216664474
v 0.25 0.41956186604250423 -0.15014552215540194
v 0.25 0.42228548300336854 -0.181276606470769
v 0 0.5752172876193395 -0.13652743735108036
v 0 0.5779409045802038 -0.1676585216664474
v 0 0.41956186604250423 -0.15014552215540194
v 0 0.42228548300336854 -0.181276606470769
v 0.25 0.42904936293556567 -0.15076762477750208
v 0.25 0.422285625 -0.181276875
v 0.25 0.30701236204557397 -0.12371267303523921
v 0.25 0.3002486241100083 -0.15422192325773712
v 0 0.42904936293556567 -0.15076762477750208
v 0 0.422285625 -0.181276875
v 0 0.30701236204557397 -0.12371267303523921
v 0 0.3002486241100083 -0.15422192325773712
v 0.28125 0.5625 0.15625
v 0.28125 0.5625 -0.15625
v 0.28125 0.3125 0.15625
v 0.28125 0.3125 -0.15625
v -0.03125 0.5625 0.15625
v -0.03125 0.5625 -0.15625
v -0.03125 0.3125 0.15625
v -0.03125 0.3125 -0.15625
vt 0.4375 0.33333333333333337
vt 0.4166666666666667 0.33333333333333337
vt 0.4166666666666667 0.22916666666666663
vt 0.4375 0.22916666666666663
vt 0.7291666666666666 0.8125
vt 0.7291666666666666 0.9166666666666666
vt 0.7083333333333334 0.9166666666666666
vt 0.7083333333333334 0.8125
vt 0.5 0.35416666666666663
vt 0.6666666666666666 0.35416666666666663
vt 0.6666666666666666 0.375
vt 0.5 0.375
vt 0.16666666666666666 0.3125
vt 0.16666666666666666 0.33333333333333337
vt 0 0.33333333333333337
vt 0 0.3125
vt 0.16666666666666666 0.39583333333333337
vt 0.16666666666666666 0.5
vt 0 0.5
vt 0 0.39583333333333337
vt 0.6666666666666666 0.7916666666666666
vt 0.5 0.7916666666666666
vt 0.5 0.6875
vt 0.6666666666666666 0.6875
vt 0.7916666666666666 0.7291666666666667
vt 0.7916666666666666 0.75
vt 0.7083333333333334 0.75
vt 0.7083333333333334 0.7291666666666667
vt 0.7291666666666666 0.5833333333333333
vt 0.7291666666666666 0.6666666666666667
vt 0.7083333333333334 0.6666666666666667
vt 0.7083333333333334 0.5833333333333333
vt 0.375 0.33333333333333337
vt 0.20833333333333334 0.33333333333333337
vt 0.20833333333333334 0.3125
vt 0.375 0.3125
vt 0.875 0.9791666666666666
vt 0.875 1
vt 0.7083333333333334 1
vt 0.7083333333333334 0.9791666666666666
vt 0.6666666666666666 0.5416666666666667
vt 0.6666666666666666 0.625
vt 0.5 0.625
vt 0.5 0.5416666666666667
vt 0.6666666666666666 0.5
vt 0.5 0.5
vt 0.5 0.41666666666666663
vt 0.6666666666666666 0.41666666666666663
vt 0.4166666666666667 0.7916666666666666
vt 0.4166666666666667 1
vt 0.25 1
vt 0.25 0.7916666666666666
vt 0.4583333333333333 0.5833333333333333
vt 0.4583333333333333 0.75
vt 0.25 0.75
vt 0.25 0.5833333333333333
vt 0.20833333333333334 1
vt 0 1
vt 0 0.7916666666666666
vt 0.20833333333333334 0.7916666666666666
vt 0.20833333333333334 0.5416666666666667
vt 0.20833333333333334 0.75
vt 0 0.75
vt 0 0.5416666666666667
vt 0.6666666666666666 0.8333333333333334
vt 0.6666666666666666 1
vt 0.4583333333333333 1
vt 0.4583333333333333 0.8333333333333334
vt 0.4583333333333333 0.5416666666666667
vt 0.25 0.5416666666666667
vt 0.25 0.375
vt 0.4583333333333333 0.375
vn 1 0 0
vn -1 0 0
vn 0 0.9961946980917455 0.08715574274765818
vn 0 -0.9961946980917455 -0.08715574274765818
vn 0 -0.08715574274765818 0.9961946980917455
vn 0 0.08715574274765818 -0.9961946980917455
vn 1 0 0
vn -1 0 0
vn 0 0.9762960071199339 -0.2164396139381014
vn 0 -0.9762960071199339 0.2164396139381014
vn 0 0.21643961393810301 0.9762960071199335
vn 0 -0.21643961393810301 -0.9762960071199335
vn 1 0 0
vn -1 0 0
vn 0 1 4.163336342344336e-17
vn 0 -1 -4.163336342344336e-17
vn 0 -4.163336342344337e-17 1
vn 0 4.163336342344337e-17 -1
usemtl m_27e83dd0-d149-fd25-9780-6dadd438e6b8
f 2/1/1 1/2/1 3/3/1 4/4/1
f 7/5/2 5/6/2 6/7/2 8/8/2
f 5/9/3 1/10/3 2/11/3 6/12/3
f 4/13/4 3/14/4 7/15/4 8/16/4
f 3/17/5 1/18/5 5/19/5 7/20/5
f 6/21/6 2/22/6 4/23/6 8/24/6
f 10/25/7 9/26/7 11/27/7 12/28/7
f 15/29/8 13/30/8 14/31/8 16/32/8
f 13/33/9 9/34/9 10/35/9 14/36/9
f 12/37/10 11/38/10 15/39/10 16/40/10
f 11/41/11 9/42/11 13/43/11 15/44/11
f 14/45/12 10/46/12 12/47/12 16/48/12
f 18/49/13 17/50/13 19/51/13 20/52/13
f 23/53/14 21/54/14 22/55/14 24/56/14
f 21/57/15 17/58/15 18/59/15 22/60/15
f 20/61/16 19/62/16 23/63/16 24/64/16
f 19/65/17 17/66/17 21/67/17 23/68/17
f 22/69/18 18/70/18 20/71/18 24/72/18
