# Made in Blockbench 5.1.6
mtllib ukrainian_basic_kneepads_p_r.mtl

o mesh
v 0.21875 0.5468098202648368 -0.17038213862731172
v 0.21875 0.5440862033039724 -0.13925105431194468
v 0.21875 0.41956186604250423 -0.15014552215540194
v 0.21875 0.42228548300336854 -0.181276606470769
v 0.03125 0.41956186604250423 -0.15014552215540194
v 0.03125 0.5440862033039724 -0.13925105431194468
v 0.03125 0.5468098202648368 -0.17038213862731172
v 0.03125 0.42228548300336854 -0.181276606470769
v 0.21875 0.422285625 -0.181276875
v 0.21875 0.4290493629355657 -0.15076762477750208
v 0.21875 0.337521612268072 -0.13047641097080492
v 0.21875 0.33075787433250625 -0.16098566119330285
v 0.03125 0.337521612268072 -0.13047641097080492
v 0.03125 0.4290493629355657 -0.15076762477750208
v 0.03125 0.422285625 -0.181276875
v 0.03125 0.33075787433250625 -0.16098566119330285
v 0.28125 0.5625 -0.15625
v 0.28125 0.5625 0.15625
v 0.28125 0.3125 0.15625
v 0.28125 0.3125 -0.15625
v -0.03125 0.3125 0.15625
v -0.03125 0.5625 0.15625
v -0.03125 0.5625 -0.15625
v -0.03125 0.3125 -0.15625
vt 0.525 0.25
vt 0.5 0.25
vt 0.5 0.15000000000000002
vt 0.525 0.15000000000000002
vt 0.8 0.875
vt 0.9 0.875
vt 0.9 0.9
vt 0.8 0.9
vt 0.6 0.275
vt 0.75 0.275
vt 0.75 0.30000000000000004
vt 0.6 0.30000000000000004
vt 0.6 0.4
vt 0.6 0.375
vt 0.75 0.375
vt 0.75 0.4
vt 0.75 0.75
vt 0.75 0.85
vt 0.6 0.85
vt 0.6 0.75
vt 0.75 1
vt 0.6 1
vt 0.6 0.9
vt 0.75 0.9
vt 0.875 0.775
vt 0.875 0.8
vt 0.8 0.8
vt 0.8 0.775
vt 0.825 0.625
vt 0.825 0.7
vt 0.8 0.7
vt 0.8 0.625
vt 0.45 0.25
vt 0.3 0.25
vt 0.3 0.22499999999999998
vt 0.45 0.22499999999999998
vt 0.95 0.975
vt 0.95 1
vt 0.8 1
vt 0.8 0.975
vt 0.75 0.625
vt 0.75 0.7
vt 0.6 0.7
vt 0.6 0.625
vt 0.75 0.55
vt 0.6 0.55
vt 0.6 0.475
vt 0.75 0.475
vt 0.55 1
vt 0.3 1
vt 0.3 0.8
vt 0.55 0.8
vt 0.55 0.55
vt 0.55 0.75
vt 0.3 0.75
vt 0.3 0.55
vt 0 0.75
vt 0.25 0.75
vt 0.25 1
vt 0 1
vt 0.25 0.44999999999999996
vt 0.25 0.7
vt 0 0.7
vt 0 0.44999999999999996
vt 0.55 0.30000000000000004
vt 0.55 0.5
vt 0.3 0.5
vt 0.3 0.30000000000000004
vt 0.25 0.4
vt 0 0.4
vt 0 0.19999999999999996
vt 0.25 0.19999999999999996
vn 1 0 0
vn -1 0 0
vn 0 0.9961946980917452 0.08715574274766168
vn 0 -0.9961946980917457 -0.08715574274765817
vn 0 -0.08715574274765817 0.9961946980917457
vn 0 0.08715574274765808 -0.9961946980917457
vn 1 0 0
vn -1 0 0
vn 0 0.9762960071199333 -0.21643961393810324
vn 0 -0.9762960071199333 0.21643961393810324
vn 0 0.21643961393810304 0.9762960071199335
vn 0 -0.21643961393810304 -0.9762960071199335
vn 1 0 0
vn -1 0 0
vn 0 1 0
vn 0 -1 0
vn 0 0 1
vn 0 0 -1
usemtl m_9d63a4e1-9058-7a3f-2a3c-e07815075295
f 1/1/1 2/2/1 3/3/1 4/4/1
f 5/5/2 6/6/2 7/7/2 8/8/2
f 6/9/3 2/10/3 1/11/3 7/12/3
f 4/13/4 3/14/4 5/15/4 8/16/4
f 3/17/5 2/18/5 6/19/5 5/20/5
f 7/21/6 1/22/6 4/23/6 8/24/6
f 9/25/7 10/26/7 11/27/7 12/28/7
f 13/29/8 14/30/8 15/31/8 16/32/8
f 14/33/9 10/34/9 9/35/9 15/36/9
f 12/37/10 11/38/10 13/39/10 16/40/10
f 11/41/11 10/42/11 14/43/11 13/44/11
f 15/45/12 9/46/12 12/47/12 16/48/12
f 17/49/13 18/50/13 19/51/13 20/52/13
f 21/53/14 22/54/14 23/55/14 24/56/14
f 22/57/15 18/58/15 17/59/15 23/60/15
f 20/61/16 19/62/16 21/63/16 24/64/16
f 19/65/17 18/66/17 22/67/17 21/68/17
f 23/69/18 17/70/18 20/71/18 24/72/18
