# Made in Blockbench 5.1.6
mtllib noxus_h.mtl

o cube
v 0.281375 2.062625 0.281375
v 0.281375 2.062625 -0.281375
v 0.281375 1.499875 0.281375
v 0.281375 1.499875 -0.281375
v -0.297 2.062625 0.281375
v -0.297 2.062625 -0.281375
v -0.297 1.499875 0.281375
v -0.297 1.499875 -0.281375
v 0.203125 2.078125 0.3125
v 0.203125 2.078125 -0.3125
v 0.203125 1.5 0.3125
v 0.203125 1.5 -0.3125
v 0.09375 2.078125 0.3125
v 0.09375 2.078125 -0.3125
v 0.09375 1.5 0.3125
v 0.09375 1.5 -0.3125
v -0.109375 2.078125 0.3125
v -0.109375 2.078125 -0.3125
v -0.109375 1.5 0.3125
v -0.109375 1.5 -0.3125
v -0.21875 2.078125 0.3125
v -0.21875 2.078125 -0.3125
v -0.21875 1.5 0.3125
v -0.21875 1.5 -0.3125
v 0.078125 2.0625 0.296875
v 0.078125 2.0625 -0.3125
v 0.078125 1.984375 0.296875
v 0.078125 1.984375 -0.3125
v -0.09375 2.0625 0.296875
v -0.09375 2.0625 -0.3125
v -0.09375 1.984375 0.296875
v -0.09375 1.984375 -0.3125
vt 0.453125 0.578125
vt 0.453125 0.71875
vt 0.3125 0.71875
vt 0.3125 0.578125
vt 0.453125 0.4375
vt 0.453125 0.578125
vt 0.3125 0.578125
vt 0.3125 0.4375
vt 0.3125 0.859375
vt 0.3125 0.71875
vt 0.4609375 0.71875
vt 0.4609375 0.859375
vt 0.15625 0.546875
vt 0.15625 0.6875
vt 0.3046875 0.6875
vt 0.3046875 0.546875
vt 0.4609375 0.859375
vt 0.4609375 1
vt 0.3125 1
vt 0.3125 0.859375
vt 0.1484375 0.546875
vt 0.1484375 0.6875
vt 0 0.6875
vt 0 0.546875
vt 0.15625 0.8515625
vt 0.15625 1
vt 0 1
vt 0 0.8515625
vt 0.15625 0.6953125
vt 0.15625 0.84375
vt 0 0.84375
vt 0 0.6953125
vt 0.09375 0.546875
vt 0.09375 0.390625
vt 0.125 0.390625
vt 0.125 0.546875
vt 0.125 0.390625
vt 0.125 0.546875
vt 0.15625 0.546875
vt 0.15625 0.390625
vt 0.28125 0.3984375
vt 0.28125 0.546875
vt 0.25 0.546875
vt 0.25 0.3984375
vt 0.25 0.3984375
vt 0.25 0.546875
vt 0.21875 0.546875
vt 0.21875 0.3984375
vt 0.3125 0.8515625
vt 0.3125 1
vt 0.15625 1
vt 0.15625 0.8515625
vt 0.3125 0.6953125
vt 0.3125 0.84375
vt 0.15625 0.84375
vt 0.15625 0.6953125
vt 0.15625 0.546875
vt 0.15625 0.390625
vt 0.1875 0.390625
vt 0.1875 0.546875
vt 0.1875 0.390625
vt 0.1875 0.546875
vt 0.21875 0.546875
vt 0.21875 0.390625
vt 0.484375 0.5703125
vt 0.484375 0.71875
vt 0.453125 0.71875
vt 0.453125 0.5703125
vt 0.3125 0.3984375
vt 0.3125 0.546875
vt 0.28125 0.546875
vt 0.28125 0.3984375
vt 0.609375 0.5390625
vt 0.609375 0.5625
vt 0.453125 0.5625
vt 0.453125 0.5390625
vt 0.625 0.9765625
vt 0.625 1
vt 0.46875 1
vt 0.46875 0.9765625
vt 0 0.546875
vt 0 0.390625
vt 0.0390625 0.390625
vt 0.0390625 0.546875
vt 0.046875 0.390625
vt 0.046875 0.546875
vt 0.0859375 0.546875
vt 0.0859375 0.390625
vt 0.5078125 0.9140625
vt 0.5078125 0.9375
vt 0.46875 0.9375
vt 0.46875 0.9140625
vt 0.5078125 0.9453125
vt 0.5078125 0.96875
vt 0.46875 0.96875
vt 0.46875 0.9453125
vn 1 0 0
vn -1 0 0
vn 0 1 0
vn 0 -1 0
vn 0 0 1
vn 0 0 -1
vn 1 0 0
vn -1 0 0
vn 0 1 0
vn 0 -1 0
vn 0 0 1
vn 0 0 -1
vn 1 0 0
vn -1 0 0
vn 0 1 0
vn 0 -1 0
vn 0 0 1
vn 0 0 -1
vn 1 0 0
vn -1 0 0
vn 0 1 0
vn 0 -1 0
vn 0 0 1
vn 0 0 -1
usemtl m_c975081f-df23-27c2-d69b-ac22b75e87bb
f 4/1/1 2/2/1 1/3/1 3/4/1
f 7/5/2 5/6/2 6/7/2 8/8/2
f 1/9/3 2/10/3 6/11/3 5/12/3
f 4/13/4 3/14/4 7/15/4 8/16/4
f 3/17/5 1/18/5 5/19/5 7/20/5
f 8/21/6 6/22/6 2/23/6 4/24/6
f 12/25/7 10/26/7 9/27/7 11/28/7
f 15/29/8 13/30/8 14/31/8 16/32/8
f 9/33/9 10/34/9 14/35/9 13/36/9
f 12/37/10 11/38/10 15/39/10 16/40/10
f 11/41/11 9/42/11 13/43/11 15/44/11
f 16/45/12 14/46/12 10/47/12 12/48/12
f 20/49/13 18/50/13 17/51/13 19/52/13
f 23/53/14 21/54/14 22/55/14 24/56/14
f 17/57/15 18/58/15 22/59/15 21/60/15
f 20/61/16 19/62/16 23/63/16 24/64/16
f 19/65/17 17/66/17 21/67/17 23/68/17
f 24/69/18 22/70/18 18/71/18 20/72/18
f 28/73/19 26/74/19 25/75/19 27/76/19
f 31/77/20 29/78/20 30/79/20 32/80/20
f 25/81/21 26/82/21 30/83/21 29/84/21
f 28/85/22 27/86/22 31/87/22 32/88/22
f 27/89/23 25/90/23 29/91/23 31/92/23
f 32/93/24 30/94/24 26/95/24 28/96/24
