# Made in Blockbench 5.1.6
mtllib tmspmg_h.mtl

o mesh
v 0.290625 2.0323969579553514 0.2841441193226918
v 0.290625 2.0371155197680317 -0.28357446882699167
v 0.290625 1.8568190400570048 0.29058891346071686
v 0.290625 1.8576350364099332 -0.2930538677372375
v -0.290625 2.0323969579553514 0.2841441193226918
v -0.290625 2.0491079541204145 -0.2798079213851147
v -0.290625 1.8568190400570048 0.29058891346071686
v -0.290625 1.8576350364099332 -0.2930538677372375
v -0.000211875 2.1059607332331964 -0.0006592883252615851
v 0 2.0893062872922004 -0.337550111844416
v 0 1.8810405419398664 -0.34807682527498507
v 0.275 1.8665294915294495 -0.26655643434741316
v 0.275 1.8338979434744362 -0.5144176496908658
v -0.275 1.8665294915294495 -0.26655643434741316
v -0.275 1.8338979434744362 -0.5144176496908658
v 0 1.9102795791447351 -0.2853061228777045
v 0 1.8776480310897223 -0.5331673382211571
v 0.265625 1.8761595131321702 -0.35528368225185897
v -0.265625 1.8761595131321702 -0.35528368225185897
v -0.265625 2.0629460190243725 -0.338941980486673
v 0.265625 2.0629460190243725 -0.338941980486673
v 0.296875 1.848923343523527 -0.04397283909818835
v 0.296875 2.0357098494157295 -0.02763113733300243
v -0.296875 1.848923343523527 -0.04397283909818835
v -0.296875 2.0357098494157295 -0.02763113733300243
vt 0.5546875 0.05592906249999996
vt 0.5546875 0.33979812499999995
vt 0.4707678125 0.34375
vt 0.46875 0.05193437499999998
vt 0.638040625 0.38109499999999996
vt 0.6322190625 0.46875
vt 0.350118125 0.46875
vt 0.346334375 0.37285812500000004
vt 0.6328125 0.7109375
vt 0.6328125 1
vt 0.34375 1
vt 0.34375 0.7109375
vt 0.2890625 0.2265625
vt 0.2890625 0.3125
vt 0 0.3125
vt 0 0.2265625
vt 0.010230625 0.6843971875
vt 0.300855625 0.6843971875
vt 0.155436875 0.8314753125000001
vt 0.1554359375 0.8314740625
vt 0.0032346875 0.96641
vt 0.010230625 0.6843971875
vt 0.300855625 0.6843971875
vt 0.309268125 0.96814
vt 0.1554384375 0.83147375
vt 0.6953125 0.0662803125
vt 0.6953125 0.21579031250000003
vt 0.59375 0.202805
vt 0.601959375 0.0546875
vt 0.8351734375 0.546875
vt 0.852333125 0.64971875
vt 0.702251875 0.64971875
vt 0.6875 0.5610721875
vt 0.309268125 0.96814
vt 0.162600625 0.999971875
vt 0.1554378125 0.8314728124999999
vt 0.1489221875 1
vt 0.003231875 0.9664128125
vt 0.1554359375 0.8314740625
vt 0.689064375 0.8125
vt 0.6948309375 0.6875
vt 0.834373125 0.6875
vt 0.8286065625 0.8125
vt 0.6875 1
vt 0.6875 0.8604578125
vt 0.8125 0.8546909375
vt 0.8125 0.9942334375
vt 0.59375 0.25
vt 0.859375 0.25
vt 0.859375 0.34375
vt 0.59375 0.34375
vt 0.6875 0.40625
vt 0.84375 0.40625
vt 0.84375 0.5
vt 0.6875 0.5
vt 0 0.34375
vt 0.296875 0.34375
vt 0.296875 0.4375
vt 0 0.4375
vt 0.75 0.125
vt 0.90625 0.125
vt 0.90625 0.21875
vt 0.75 0.21875
vt 0.34375 0.5
vt 0.640625 0.5
vt 0.625 0.65625
vt 0.359375 0.65625
vt 0.015625 0.46875
vt 0.28125 0.46875
vt 0.296875 0.625
vt 0 0.625
vn 1 0 0
vn -1 0 0
vn 0 -0.9999990226467389 -0.0013981078524379423
vn 0 0.036681474082643224 0.9993270082706283
vn 0 0.9682229129167853 0.2500887660470481
vn -0.21872209988383112 0.9753590773280914 0.028901787074540143
vn 0.23777052241133545 0.971287809296797 0.008072805192105945
vn -0.2012106738893667 0.04944775988927875 -0.9782991279536742
vn 0.19097058034729536 0.04955113172543217 -0.9803442878838771
vn 0.18524850981111377 0.9814988451622095 -0.048404612982760005
vn -0.14638202180596865 0.9880170187290882 -0.04893541042723182
vn 0.16436336047096145 0.9779610734251096 -0.12875101785966678
vn -0.16436336047096145 0.9779610734251096 -0.12875101785966675
vn 0 0.08715574274765853 -0.9961946980917455
vn 0.9950371902099893 0.008672320537429477 -0.09912507732912991
vn 0 -0.08715574274765817 0.9961946980917457
vn -0.9950371902099892 0.008672320537429466 -0.09912507732912988
vn 0 0.9961946980917458 0.08715574274765649
vn 0 -0.9961946980917457 -0.0871557427476579
usemtl m_b32e3438-cecb-66f2-3ca6-48fe164583e1
f 2/1/1 1/2/1 3/3/1 4/4/1
f 7/5/2 5/6/2 6/7/2 8/8/2
f 4/9/3 3/10/3 7/11/3 8/12/3
f 3/13/4 1/14/4 5/15/4 7/16/4
f 5/17/5 1/18/5 9/19/5
f 9/20/6 6/21/6 5/22/6
f 1/23/7 2/24/7 9/25/7
f 6/26/8 10/27/8 11/28/8 8/29/8
f 11/30/9 10/31/9 2/32/9 4/33/9
f 2/34/10 10/35/10 9/36/10
f 10/37/11 6/38/11 9/39/11
f 12/40/12 13/41/12 17/42/12 16/43/12
f 17/44/13 15/45/13 14/46/13 16/47/13
f 18/48/14 19/49/14 20/50/14 21/51/14
f 22/52/15 18/53/15 21/54/15 23/55/15
f 24/56/16 22/57/16 23/58/16 25/59/16
f 19/60/17 24/61/17 25/62/17 20/63/17
f 25/64/18 23/65/18 21/66/18 20/67/18
f 19/68/19 18/69/19 22/70/19 24/71/19
